<?xml version="1.0" encoding="utf-8"?>
<!-- Generator: Adobe Illustrator 24.0.2, SVG Export Plug-In . SVG Version: 6.00 Build 0)  -->
<svg version="1.1" id="Layer_1" xmlns="http://www.w3.org/2000/svg" xmlns:xlink="http://www.w3.org/1999/xlink" x="0px" y="0px"
	 viewBox="0 0 1920 1089" style="enable-background:new 0 0 1920 1089;" xml:space="preserve">
<style type="text/css">
	.st0{fill:#0B6BB0;}
	.st1{opacity:0.2;fill:url(#SVGID_1_);enable-background:new    ;}
	.st2{opacity:0.32;fill:url(#SVGID_2_);enable-background:new    ;}
	.st3{opacity:0.15;fill:url(#SVGID_3_);enable-background:new    ;}
	.st4{opacity:0.3;fill:url(#SVGID_4_);enable-background:new    ;}
	.st5{opacity:0.3;fill:url(#SVGID_5_);enable-background:new    ;}
	.st6{opacity:0.1;fill:url(#SVGID_6_);enable-background:new    ;}
	.st7{opacity:0.1;fill:url(#SVGID_7_);enable-background:new    ;}
</style>
<title>background</title>
<rect class="st0" width="1920" height="1089"/>
<image style="overflow:visible;enable-background:new    ;" width="1920" height="1078" xlink:href="6536C90B.png"  transform="matrix(1 0 0 1.0102 0 0)">
</image>
<linearGradient id="SVGID_1_" gradientUnits="userSpaceOnUse" x1="817.8865" y1="981.7461" x2="820.6141" y2="-78.8229" gradientTransform="matrix(1 0 0 -1 0 1090)">
	<stop  offset="0" style="stop-color:#004481"/>
	<stop  offset="1" style="stop-color:#004A87"/>
</linearGradient>
<path class="st1" d="M561.6,0c0,0-763.2,304.9,888,1088.9H441.8C441.8,1088.9-199.2,56.3,561.6,0z"/>
<linearGradient id="SVGID_2_" gradientUnits="userSpaceOnUse" x1="358.6854" y1="981.106" x2="361.4029" y2="-78.0229" gradientTransform="matrix(1 0 0 -1 0 1090)">
	<stop  offset="0" style="stop-color:#004481"/>
	<stop  offset="1" style="stop-color:#004A87"/>
</linearGradient>
<path class="st2" d="M0,441C0,441,52.8,99.8,405.6,0h156c0,0-703.2,87.1,160.8,1088.9H0V441z"/>
<linearGradient id="SVGID_3_" gradientUnits="userSpaceOnUse" x1="225.6445" y1="1024.4839" x2="227.2836" y2="387.6499" gradientTransform="matrix(1 0 0 -1 0 1090)">
	<stop  offset="0" style="stop-color:#004481"/>
	<stop  offset="1" style="stop-color:#004A87"/>
</linearGradient>
<path class="st3" d="M0,655.9C0,655.9,46.1,97.6,452.6,0H268.8C268.8,0,48,108.4,0,314.3V655.9z"/>
<linearGradient id="SVGID_4_" gradientUnits="userSpaceOnUse" x1="1711.9862" y1="1056.4993" x2="714.7863" y2="407.3212" gradientTransform="matrix(1 0 0 -1 0 1090)">
	<stop  offset="0" style="stop-color:#004481"/>
	<stop  offset="1" style="stop-color:#004A87"/>
</linearGradient>
<path class="st4" d="M1080,0c0,0,638.4,61.6,396,424.1c0,0-234.6,357.5-843.3,178.8c0,0,327.3,162,716.1,49.6
	c0,0,458.4-125.1,571.2-429.5V0H1080z"/>
<linearGradient id="SVGID_5_" gradientUnits="userSpaceOnUse" x1="1776.3497" y1="870.2103" x2="818.2798" y2="246.5002" gradientTransform="matrix(1 0 0 -1 0 1090)">
	<stop  offset="0" style="stop-color:#004481"/>
	<stop  offset="1" style="stop-color:#004A87"/>
</linearGradient>
<path class="st5" d="M633.6,604.3c0,0,412.8,314.4,1286.4-118.6V101.3C1920,101.3,1353.6,884.5,633.6,604.3z"/>
<linearGradient id="SVGID_6_" gradientUnits="userSpaceOnUse" x1="1701.181" y1="707.1985" x2="867.7909" y2="164.6586" gradientTransform="matrix(1 0 0 -1 0 1090)">
	<stop  offset="0" style="stop-color:#004481"/>
	<stop  offset="1" style="stop-color:#004A87"/>
</linearGradient>
<path class="st6" d="M633.6,604.3c0,0,499.2,361.1,1286.4,109.6v-290C1920,423.9,1382.4,873.8,633.6,604.3z"/>
<linearGradient id="SVGID_7_" gradientUnits="userSpaceOnUse" x1="1656.751" y1="597.4285" x2="899.041" y2="104.1585" gradientTransform="matrix(1 0 0 -1 0 1090)">
	<stop  offset="0" style="stop-color:#004481"/>
	<stop  offset="1" style="stop-color:#004A87"/>
</linearGradient>
<path class="st7" d="M633.6,613.3c0,0,482.4,344.9,1286.4,253.3V628.7C1920,628.7,1315.2,956.4,633.6,613.3z"/>
</svg>
