<?xml version="1.0" encoding="utf-8"?>
<!-- Generator: Adobe Illustrator 24.0.2, SVG Export Plug-In . SVG Version: 6.00 Build 0)  -->
<svg version="1.1" id="Layer_1" xmlns="http://www.w3.org/2000/svg" xmlns:xlink="http://www.w3.org/1999/xlink" x="0px" y="0px"
	 viewBox="0 0 792.1 467.7" style="enable-background:new 0 0 792.1 467.7;" xml:space="preserve">
<style type="text/css">
	.st0{fill:#01203F;}
	.st1{clip-path:url(#SVGID_2_);}
	.st2{opacity:0.2;fill:url(#SVGID_3_);enable-background:new    ;}
	.st3{opacity:0.32;fill:url(#SVGID_4_);enable-background:new    ;}
	.st4{opacity:0.15;fill:url(#SVGID_5_);enable-background:new    ;}
	.st5{opacity:0.3;fill:url(#SVGID_6_);enable-background:new    ;}
	.st6{opacity:0.3;fill:url(#SVGID_7_);enable-background:new    ;}
	.st7{opacity:0.1;fill:url(#SVGID_8_);enable-background:new    ;}
	.st8{opacity:0.1;fill:url(#SVGID_9_);enable-background:new    ;}
	.st9{opacity:0.3;}
	.st10{fill:none;stroke:#00408C;stroke-miterlimit:10;}
	.st11{opacity:0.58;}
	.st12{fill:#004B89;}
	.st13{fill:url(#SVGID_10_);}
	.st14{fill:url(#SVGID_11_);}
	.st15{fill:url(#SVGID_12_);}
	.st16{fill:url(#SVGID_13_);}
	.st17{fill:url(#SVGID_14_);}
	.st18{fill:url(#SVGID_15_);}
	.st19{fill:url(#SVGID_16_);}
	.st20{fill:url(#SVGID_17_);}
	.st21{fill:url(#SVGID_18_);}
	.st22{fill:url(#SVGID_19_);}
	.st23{fill:url(#SVGID_20_);}
	.st24{fill:url(#SVGID_21_);}
	.st25{fill:url(#SVGID_22_);}
	.st26{fill:url(#SVGID_23_);}
	.st27{fill:url(#SVGID_24_);}
	.st28{fill:url(#SVGID_25_);}
	.st29{fill:url(#SVGID_26_);}
	.st30{fill:url(#SVGID_27_);}
	.st31{clip-path:url(#SVGID_29_);}
	.st32{fill:#FFFFFF;}
	.st33{fill:#FFDE75;}
	.st34{fill:#F8F6E4;}
</style>
<title>card</title>
<g id="Layer_2_1_">
	<g id="Layer_1-2">
		<path class="st0" d="M100.9,117h467.5c24.4,0,44.1,19.7,44.1,44.1v255.8c0,24.4-19.7,44.1-44.1,44.1H100.9
			c-24.4,0-44.1-19.7-44.1-44.1V161.1C56.8,136.8,76.6,117,100.9,117z"/>
		<g>
			<defs>
				<path id="SVGID_1_" d="M101.6,117h467.5c24.4,0,44.1,19.7,44.1,44.1v255.8c0,24.4-19.7,44.1-44.1,44.1H101.6
					c-24.4,0-44.1-19.7-44.1-44.1V161.1C57.5,136.8,77.3,117,101.6,117z"/>
			</defs>
			<clipPath id="SVGID_2_">
				<use xlink:href="#SVGID_1_"  style="overflow:visible;"/>
			</clipPath>
			<g class="st1">
				
					<linearGradient id="SVGID_3_" gradientUnits="userSpaceOnUse" x1="269.3702" y1="433.9" x2="270.2402" y2="93.34" gradientTransform="matrix(1 0 0 -1 -4.04 585.01)">
					<stop  offset="0" style="stop-color:#004481"/>
					<stop  offset="1" style="stop-color:#004A87"/>
				</linearGradient>
				<path class="st2" d="M182.2,116.3c0,0-247.6,97.9,288.1,349.7H143.3C143.3,466-64.6,134.4,182.2,116.3z"/>
				
					<linearGradient id="SVGID_4_" gradientUnits="userSpaceOnUse" x1="120.39" y1="433.6899" x2="121.26" y2="93.6" gradientTransform="matrix(1 0 0 -1 -4.04 585.01)">
					<stop  offset="0" style="stop-color:#004481"/>
					<stop  offset="1" style="stop-color:#004A87"/>
				</linearGradient>
				<path class="st3" d="M0,258c0,0,17.2-109.6,131.6-141.7h50.6c0,0-228.1,28,52.2,349.7H0V258z"/>
				
					<linearGradient id="SVGID_5_" gradientUnits="userSpaceOnUse" x1="77.2216" y1="447.53" x2="77.7516" y2="242.09" gradientTransform="matrix(1 0 0 -1 -4.04 585.01)">
					<stop  offset="0" style="stop-color:#004481"/>
					<stop  offset="1" style="stop-color:#004A87"/>
				</linearGradient>
				<path class="st4" d="M0,328c0,0,15-180.1,146.9-211.6H87.2c0,0-71.6,35-87.2,101.4V328z"/>
				
					<linearGradient id="SVGID_6_" gradientUnits="userSpaceOnUse" x1="559.1801" y1="458.3599" x2="236.3601" y2="248.1999" gradientTransform="matrix(1 0 0 -1 -4.04 585.01)">
					<stop  offset="0" style="stop-color:#004481"/>
					<stop  offset="1" style="stop-color:#004A87"/>
				</linearGradient>
				<path class="st5" d="M350.4,116.3c0,0,207.1,19.8,128.5,136.4c0,0-76.1,115-273.6,57.5c0,0,106.2,52.1,232.3,15.9
					c0,0,148.7-40.2,185.3-138.1v-71.7H350.4z"/>
				
					<linearGradient id="SVGID_7_" gradientUnits="userSpaceOnUse" x1="580.2811" y1="399.3283" x2="269.4911" y2="196.9983" gradientTransform="matrix(1 0 0 -1 -4.04 585.01)">
					<stop  offset="0" style="stop-color:#004481"/>
					<stop  offset="1" style="stop-color:#004A87"/>
				</linearGradient>
				<path class="st6" d="M205.5,310.4c0,0,133.9,102,417.3-38.5V147.2C622.8,147.2,439.1,401.3,205.5,310.4z"/>
				
					<linearGradient id="SVGID_8_" gradientUnits="userSpaceOnUse" x1="555.9118" y1="346.4319" x2="285.5618" y2="170.4319" gradientTransform="matrix(1 0 0 -1 -4.04 585.01)">
					<stop  offset="0" style="stop-color:#004481"/>
					<stop  offset="1" style="stop-color:#004A87"/>
				</linearGradient>
				<path class="st7" d="M205.5,310.4c0,0,161.9,117.1,417.3,35.6v-94.1C622.8,251.9,448.4,397.8,205.5,310.4z"/>
				
					<linearGradient id="SVGID_9_" gradientUnits="userSpaceOnUse" x1="541.4903" y1="310.8396" x2="295.6903" y2="150.8195" gradientTransform="matrix(1 0 0 -1 -4.04 585.01)">
					<stop  offset="0" style="stop-color:#004481"/>
					<stop  offset="1" style="stop-color:#004A87"/>
				</linearGradient>
				<path class="st8" d="M205.5,313.3c0,0,156.5,111.9,417.3,82.2v-77.2C622.8,318.3,426.6,424.6,205.5,313.3z"/>
				<g class="st9">
					<polygon class="st10" points="751,341.1 618.8,354.2 684.9,317.6 					"/>
					<polygon class="st10" points="646.7,266.7 618.8,354.2 684.9,317.6 					"/>
					<polygon class="st10" points="656.5,323.1 589,463 694.7,354.2 					"/>
					<polygon class="st10" points="618.8,354.2 646.7,266.7 590.8,341.1 					"/>
					<polygon class="st10" points="618.8,354.2 578.5,412.3 590.8,341.1 					"/>
					<polygon class="st10" points="618.8,354.2 578.5,412.3 651.8,448.4 					"/>
					<polygon class="st10" points="478,295.6 646.7,266.7 590.8,341.1 					"/>
					<polygon class="st10" points="590.8,341.1 478,295.6 579.2,354.2 					"/>
					<polygon class="st10" points="590.8,341.1 478,295.6 525.7,226.6 					"/>
					<polygon class="st10" points="439.6,184 478,295.6 525.7,226.6 					"/>
					<polyline class="st10" points="525.7,226.6 538.5,260.5 478,295.6 					"/>
					<polygon class="st10" points="439.6,184 525.7,226.6 518.6,149.2 					"/>
					<polygon class="st10" points="439.6,184 476,141.8 518.6,149.2 					"/>
					<polygon class="st10" points="598.6,169.9 525.7,226.6 518.6,149.2 					"/>
					<polygon class="st10" points="598.6,169.9 538.9,125.2 518.6,149.2 					"/>
					<polygon class="st10" points="548.5,266.7 525.7,226.6 518.6,149.2 					"/>
					<polygon class="st10" points="590.8,341.1 558.6,422.5 499.3,373.9 					"/>
					<polygon class="st10" points="590.8,341.1 581.5,450.3 549.5,354.2 					"/>
					<polygon class="st10" points="684.9,317.6 751,341.1 646.7,266.7 					"/>
					<polygon class="st10" points="497.5,194.3 661.8,295.6 656.5,323.1 					"/>
					<polygon class="st10" points="683.3,366 598.6,357.8 552.1,256.8 					"/>
					<polyline class="st10" points="651.8,448.4 785.5,366 610.9,403.7 651.8,446.7 694.7,450.3 					"/>
					<polygon class="st10" points="694.7,450.3 694.7,354.2 790.9,448.4 					"/>
					<polygon class="st10" points="733.4,286.2 590.8,308.9 651.8,446.7 					"/>
					<polyline class="st10" points="590.8,308.9 617.7,249.8 733.4,286.2 					"/>
					<polygon class="st10" points="450.8,226.6 476,141.8 380,205.5 					"/>
					<polygon class="st10" points="380,205.5 370.5,179.4 461.9,165.8 					"/>
					<polygon class="st10" points="424.3,149.2 552.1,256.8 420.3,172 					"/>
					<polygon class="st10" points="479.1,33.8 424.3,149.2 518.6,149.2 					"/>
					<polygon class="st10" points="395.7,24.6 392.8,125.2 479.1,33.8 					"/>
					<polygon class="st10" points="395.7,24.6 474.1,0.6 479.1,33.8 					"/>
					<polygon class="st10" points="527.7,65.6 392.8,125.2 322.9,67.7 					"/>
					<polygon class="st10" points="461.9,165.8 329.5,54.4 436,63.5 					"/>
					<polygon class="st10" points="322.9,67.7 370.5,179.4 461.9,165.8 					"/>
				</g>
				<g class="st11">
					<path class="st12" d="M496.9,373.9c0-1.3,1.1-2.4,2.4-2.4s2.4,1.1,2.4,2.4s-1.1,2.4-2.4,2.4C498,376.3,496.9,375.3,496.9,373.9
						C496.9,373.9,496.9,373.9,496.9,373.9z"/>
					<path class="st12" d="M615.4,354.2c0-1.8,1.5-3.3,3.3-3.3s3.3,1.5,3.3,3.3s-1.5,3.3-3.3,3.3C616.9,357.5,615.4,356,615.4,354.2
						L615.4,354.2z"/>
					<circle class="st12" cx="579.3" cy="353.9" r="2.6"/>
					<path class="st12" d="M588.3,341.2c0-1.4,1.2-2.6,2.6-2.6s2.6,1.2,2.6,2.6s-1.2,2.6-2.6,2.6S588.3,342.6,588.3,341.2
						L588.3,341.2z"/>
					<circle class="st12" cx="598.6" cy="357.8" r="4.1"/>
					<path class="st12" d="M556,422.5c0-1.3,1.1-2.4,2.4-2.4c1.3,0,2.4,1.1,2.4,2.4c0,1.3-1.1,2.4-2.4,2.4c0,0,0,0,0,0
						C557.1,424.9,556,423.8,556,422.5z"/>
					<path class="st12" d="M649.7,447.7c0-1.2,1-2.1,2.1-2.1s2.1,1,2.1,2.1s-1,2.1-2.1,2.1S649.7,448.8,649.7,447.7L649.7,447.7z"/>
					<circle class="st12" cx="786.1" cy="366.3" r="3.2"/>
					<path class="st12" d="M588.2,308.9c0-1.5,1.2-2.7,2.7-2.7s2.7,1.2,2.7,2.7c0,1.5-1.2,2.7-2.7,2.7l0,0
						C589.4,311.6,588.2,310.4,588.2,308.9z"/>
					<path class="st12" d="M749.5,341.2c0-1.5,1.2-2.7,2.7-2.7s2.7,1.2,2.7,2.7c0,1.5-1.2,2.7-2.7,2.7c0,0,0,0,0,0
						C750.7,343.8,749.5,342.6,749.5,341.2z"/>
					<path class="st12" d="M681.5,317.9c0-1.7,1.3-3,3-3s3,1.3,3,3s-1.3,3-3,3S681.5,319.6,681.5,317.9z"/>
					<circle class="st12" cx="656.8" cy="323.1" r="3"/>
					<circle class="st12" cx="617.7" cy="249.8" r="3"/>
					<circle class="st12" cx="662.9" cy="262.8" r="3"/>
					<circle class="st12" cx="662.4" cy="297.7" r="3.6"/>
					<circle class="st12" cx="693.7" cy="354.2" r="3.7"/>
					<path class="st12" d="M474.2,295.6c0-2.1,1.7-3.8,3.8-3.8c2.1,0,3.8,1.7,3.8,3.8s-1.7,3.8-3.8,3.8c0,0,0,0,0,0
						C475.9,299.4,474.2,297.7,474.2,295.6z"/>
					<path class="st12" d="M550,256.8c0-2.1,1.7-3.8,3.8-3.8s3.8,1.7,3.8,3.8c0,2.1-1.7,3.8-3.8,3.8l0,0
						C551.7,260.6,550,258.9,550,256.8C550,256.8,550,256.8,550,256.8z"/>
					<path class="st12" d="M491.4,193.2c0-2.7,2.3-4.9,5-4.9s4.9,2.3,4.9,5c0,2.7-2.2,4.9-4.9,4.9
						C493.6,198.2,491.4,196,491.4,193.2C491.4,193.2,491.4,193.2,491.4,193.2z"/>
					<path class="st12" d="M516,149.2c0-1.4,1.2-2.6,2.6-2.6s2.6,1.2,2.6,2.6c0,1.4-1.2,2.6-2.6,2.6l0,0
						C517.1,151.8,516,150.7,516,149.2z"/>
					<path class="st12" d="M537,125.2c0-1,0.8-1.9,1.9-1.9c1,0,1.9,0.8,1.9,1.9c0,1-0.8,1.9-1.9,1.9c0,0,0,0,0,0
						C537.8,127.1,537,126.3,537,125.2z"/>
					<path class="st12" d="M474.1,141.4c0-1.2,1-2.2,2.2-2.2c1.2,0,2.2,1,2.2,2.2s-1,2.2-2.2,2.2c0,0,0,0,0,0
						C475.1,143.7,474.1,142.7,474.1,141.4z"/>
					<path class="st12" d="M436.8,184c0-1.6,1.3-2.8,2.8-2.8c1.6,0,2.8,1.3,2.8,2.8c0,1.6-1.3,2.8-2.8,2.8c0,0,0,0,0,0
						C438,186.8,436.8,185.6,436.8,184z"/>
					<path class="st12" d="M421.4,149.2c0-1.6,1.2-2.8,2.8-2.9c1.6,0,2.8,1.2,2.9,2.8c0,1.6-1.2,2.8-2.8,2.9c0,0,0,0,0,0
						C422.7,152,421.5,150.8,421.4,149.2z"/>
					<path class="st12" d="M476.3,33.8c0-1.6,1.3-2.8,2.8-2.8c1.6,0,2.8,1.2,2.9,2.8c0,0,0,0,0,0c0,1.6-1.3,2.8-2.8,2.8
						C477.6,36.6,476.3,35.3,476.3,33.8C476.3,33.8,476.3,33.8,476.3,33.8z"/>
					<path class="st12" d="M390.6,23.4c0-2.2,1.8-4,4-4s4,1.8,4,4s-1.8,4-4,4S390.6,25.6,390.6,23.4z"/>
					<path class="st12" d="M325.5,54.5c0-2.2,1.8-4,4-4s4,1.8,4,4c0,2.2-1.8,4-4,4S325.5,56.7,325.5,54.5L325.5,54.5z"/>
					<path class="st12" d="M430.7,62.9c0-2.6,2.1-4.7,4.7-4.7l0,0c2.6,0,4.6,2.1,4.6,4.7c0,2.6-2.1,4.7-4.7,4.7l0,0
						C432.7,67.6,430.7,65.5,430.7,62.9z"/>
					<path class="st12" d="M524.9,65.6c0-1.6,1.3-2.8,2.8-2.8c1.6,0,2.8,1.3,2.8,2.8c0,0,0,0,0,0c0,1.6-1.3,2.8-2.8,2.8l0,0
						C526.2,68.4,524.9,67.2,524.9,65.6z"/>
					<path class="st12" d="M416.6,171.6c0-1.8,1.5-3.3,3.3-3.3c1.8,0,3.3,1.5,3.3,3.3c0,1.8-1.5,3.3-3.3,3.3c0,0,0,0,0,0
						C418,174.8,416.6,173.3,416.6,171.6z"/>
					<path class="st12" d="M594.2,169c0-1.9,1.6-3.5,3.5-3.5c1.9,0,3.5,1.6,3.5,3.5s-1.6,3.5-3.5,3.5
						C595.8,172.5,594.2,171,594.2,169C594.2,169,594.2,169,594.2,169z"/>
					<path class="st12" d="M536.5,260.5c0-1.1,0.9-2,2-2s2,0.9,2,2c0,1.1-0.9,2-2,2S536.5,261.6,536.5,260.5z"/>
					<path class="st12" d="M513.5,274c0-1.1,0.9-2,2-2s2,0.9,2,2c0,1.1-0.9,2-2,2S513.5,275.1,513.5,274z"/>
					<path class="st12" d="M389.7,125.2c0.1-1.7,1.6-3,3.3-2.9c1.6,0.1,2.8,1.3,2.9,2.9c-0.1,1.7-1.6,3-3.3,2.9
						C391.1,128,389.8,126.8,389.7,125.2z"/>
				</g>
				<g class="st9">
					
						<linearGradient id="SVGID_10_" gradientUnits="userSpaceOnUse" x1="574.25" y1="55.75" x2="582.71" y2="55.75" gradientTransform="matrix(1 0 0 -1 0 468)">
						<stop  offset="0" style="stop-color:#004481"/>
						<stop  offset="1" style="stop-color:#004A87"/>
					</linearGradient>
					<circle class="st13" cx="578.5" cy="412.3" r="4.2"/>
					
						<linearGradient id="SVGID_11_" gradientUnits="userSpaceOnUse" x1="579.84" y1="172.76" x2="585.21" y2="172.76" gradientTransform="matrix(1 0 0 -1 -4.04 585.01)">
						<stop  offset="0" style="stop-color:#004481"/>
						<stop  offset="1" style="stop-color:#004A87"/>
					</linearGradient>
					<path class="st14" d="M578.5,409.6c1.5,0,2.7,1.2,2.7,2.7c0,1.5-1.2,2.7-2.7,2.7s-2.7-1.2-2.7-2.7c0,0,0,0,0,0
						C575.8,410.8,577,409.6,578.5,409.6z"/>
					
						<linearGradient id="SVGID_12_" gradientUnits="userSpaceOnUse" x1="545.28" y1="113.81" x2="553.75" y2="113.81" gradientTransform="matrix(1 0 0 -1 0 468)">
						<stop  offset="0" style="stop-color:#004481"/>
						<stop  offset="1" style="stop-color:#004A87"/>
					</linearGradient>
					<circle class="st15" cx="549.5" cy="354.2" r="4.2"/>
					
						<linearGradient id="SVGID_13_" gradientUnits="userSpaceOnUse" x1="550.87" y1="230.82" x2="556.25" y2="230.82" gradientTransform="matrix(1 0 0 -1 -4.04 585.01)">
						<stop  offset="0" style="stop-color:#004481"/>
						<stop  offset="1" style="stop-color:#004A87"/>
					</linearGradient>
					<path class="st16" d="M549.5,351.5c1.5,0,2.7,1.2,2.7,2.7c0,1.5-1.2,2.7-2.7,2.7s-2.7-1.2-2.7-2.7
						C546.8,352.7,548,351.5,549.5,351.5z"/>
					
						<linearGradient id="SVGID_14_" gradientUnits="userSpaceOnUse" x1="555.32" y1="154.88" x2="561.3" y2="154.88" gradientTransform="matrix(1 0 0 -1 -4.04 585.01)">
						<stop  offset="0" style="stop-color:#004481"/>
						<stop  offset="1" style="stop-color:#004A87"/>
					</linearGradient>
					<path class="st17" d="M551.3,430.1c0-1.7,1.3-3,3-3s3,1.3,3,3s-1.3,3-3,3S551.3,431.8,551.3,430.1z"/>
					
						<linearGradient id="SVGID_15_" gradientUnits="userSpaceOnUse" x1="556.41" y1="154.88" x2="560.21" y2="154.88" gradientTransform="matrix(1 0 0 -1 -4.04 585.01)">
						<stop  offset="0" style="stop-color:#004481"/>
						<stop  offset="1" style="stop-color:#004A87"/>
					</linearGradient>
					<path class="st18" d="M554.3,428.2c1,0,1.9,0.9,1.9,1.9s-0.9,1.9-1.9,1.9c-1,0-1.9-0.9-1.9-1.9
						C552.4,429.1,553.2,428.2,554.3,428.2z"/>
					
						<linearGradient id="SVGID_16_" gradientUnits="userSpaceOnUse" x1="729.15" y1="182.15" x2="737.61" y2="182.15" gradientTransform="matrix(1 0 0 -1 0 468)">
						<stop  offset="0" style="stop-color:#004481"/>
						<stop  offset="1" style="stop-color:#004A87"/>
					</linearGradient>
					<circle class="st19" cx="733.4" cy="285.9" r="4.2"/>
					
						<linearGradient id="SVGID_17_" gradientUnits="userSpaceOnUse" x1="734.74" y1="299.15" x2="740.11" y2="299.15" gradientTransform="matrix(1 0 0 -1 -4.04 585.01)">
						<stop  offset="0" style="stop-color:#004481"/>
						<stop  offset="1" style="stop-color:#004A87"/>
					</linearGradient>
					<path class="st20" d="M733.4,283.2c1.5,0,2.7,1.2,2.7,2.7c0,1.5-1.2,2.7-2.7,2.7s-2.7-1.2-2.7-2.7c0,0,0,0,0,0
						C730.7,284.4,731.9,283.2,733.4,283.2C733.4,283.2,733.4,283.2,733.4,283.2z"/>
					
						<linearGradient id="SVGID_18_" gradientUnits="userSpaceOnUse" x1="611.95" y1="320.63" x2="618.71" y2="320.63" gradientTransform="matrix(1 0 0 -1 -4.04 585.01)">
						<stop  offset="0" style="stop-color:#004481"/>
						<stop  offset="1" style="stop-color:#004A87"/>
					</linearGradient>
					<path class="st21" d="M608,264.4c0-1.9,1.5-3.4,3.4-3.4s3.4,1.5,3.4,3.4s-1.5,3.4-3.4,3.4C609.5,267.8,608,266.3,608,264.4
						C608,264.4,608,264.4,608,264.4z"/>
					
						<linearGradient id="SVGID_19_" gradientUnits="userSpaceOnUse" x1="613.18" y1="320.62" x2="617.47" y2="320.62" gradientTransform="matrix(1 0 0 -1 -4.04 585.01)">
						<stop  offset="0" style="stop-color:#004481"/>
						<stop  offset="1" style="stop-color:#004A87"/>
					</linearGradient>
					<path class="st22" d="M611.3,262.2c1.2,0,2.1,1,2.1,2.2c0,1.2-1,2.1-2.2,2.1c-1.2,0-2.1-1-2.1-2.2c0,0,0,0,0,0
						C609.1,263.2,610.1,262.2,611.3,262.2C611.3,262.2,611.3,262.2,611.3,262.2z"/>
					
						<linearGradient id="SVGID_20_" gradientUnits="userSpaceOnUse" x1="461.3862" y1="339.6955" x2="467.7662" y2="339.6955" gradientTransform="matrix(1 0 0 -1 -4.0468 584.9996)">
						<stop  offset="0" style="stop-color:#004481"/>
						<stop  offset="1" style="stop-color:#004A87"/>
					</linearGradient>
					<circle class="st23" cx="460.5" cy="245.3" r="3.2"/>
					
						<linearGradient id="SVGID_21_" gradientUnits="userSpaceOnUse" x1="462.55" y1="339.72" x2="466.6" y2="339.72" gradientTransform="matrix(1 0 0 -1 -4.04 585.01)">
						<stop  offset="0" style="stop-color:#004481"/>
						<stop  offset="1" style="stop-color:#004A87"/>
					</linearGradient>
					<path class="st24" d="M460.5,243.3c1.1,0,2,0.9,2,2c0,1.1-0.9,2-2,2s-2-0.9-2-2C458.5,244.2,459.4,243.3,460.5,243.3z"/>
					
						<linearGradient id="SVGID_22_" gradientUnits="userSpaceOnUse" x1="368.11" y1="407.11" x2="377.89" y2="407.11" gradientTransform="matrix(1 0 0 -1 -4.04 585.01)">
						<stop  offset="0" style="stop-color:#004481"/>
						<stop  offset="1" style="stop-color:#004A87"/>
					</linearGradient>
					<path class="st25" d="M364.1,177.9c0-2.7,2.2-4.9,4.9-4.9c2.7,0,4.9,2.2,4.9,4.9s-2.2,4.9-4.9,4.9
						C366.3,182.8,364.1,180.6,364.1,177.9z"/>
					
						<linearGradient id="SVGID_23_" gradientUnits="userSpaceOnUse" x1="369.89" y1="407.11" x2="376.11" y2="407.11" gradientTransform="matrix(1 0 0 -1 -4.04 585.01)">
						<stop  offset="0" style="stop-color:#004481"/>
						<stop  offset="1" style="stop-color:#004A87"/>
					</linearGradient>
					<path class="st26" d="M369,174.8c1.7,0,3.1,1.4,3.1,3.1c0,1.7-1.4,3.1-3.1,3.1c-1.7,0-3.1-1.4-3.1-3.1c0,0,0,0,0,0
						C365.9,176.2,367.2,174.8,369,174.8z"/>
					
						<linearGradient id="SVGID_24_" gradientUnits="userSpaceOnUse" x1="458.07" y1="302.24" x2="465.78" y2="302.24" gradientTransform="matrix(1 0 0 -1 0 468)">
						<stop  offset="0" style="stop-color:#004481"/>
						<stop  offset="1" style="stop-color:#004A87"/>
					</linearGradient>
					<circle class="st27" cx="461.9" cy="165.8" r="3.9"/>
					
						<linearGradient id="SVGID_25_" gradientUnits="userSpaceOnUse" x1="463.52" y1="419.25" x2="468.42" y2="419.25" gradientTransform="matrix(1 0 0 -1 -4.04 585.01)">
						<stop  offset="0" style="stop-color:#004481"/>
						<stop  offset="1" style="stop-color:#004A87"/>
					</linearGradient>
					<path class="st28" d="M462,163.3c1.4,0,2.4,1.1,2.4,2.5c0,1.4-1.1,2.4-2.5,2.4c-1.4,0-2.4-1.1-2.4-2.4
						C459.5,164.4,460.6,163.3,462,163.3L462,163.3z"/>
					
						<linearGradient id="SVGID_26_" gradientUnits="userSpaceOnUse" x1="323.03" y1="517.425" x2="330.82" y2="517.425" gradientTransform="matrix(1 0 0 -1 -4.04 585.01)">
						<stop  offset="0" style="stop-color:#004481"/>
						<stop  offset="1" style="stop-color:#004A87"/>
					</linearGradient>
					<path class="st29" d="M319,67.6c0-2.2,1.7-3.9,3.9-3.9c2.2,0,3.9,1.7,3.9,3.9c0,2.1-1.7,3.9-3.9,3.9l0,0
						C320.7,71.5,319,69.7,319,67.6z"/>
					
						<linearGradient id="SVGID_27_" gradientUnits="userSpaceOnUse" x1="324.46" y1="517.425" x2="329.4" y2="517.425" gradientTransform="matrix(1 0 0 -1 -4.04 585.01)">
						<stop  offset="0" style="stop-color:#004481"/>
						<stop  offset="1" style="stop-color:#004A87"/>
					</linearGradient>
					<path class="st30" d="M322.9,65.1c1.4,0,2.5,1.1,2.5,2.5c0,1.4-1.1,2.5-2.5,2.5c-1.4,0-2.5-1.1-2.5-2.5
						C320.4,66.2,321.5,65.1,322.9,65.1z"/>
				</g>
				<g>
					<defs>
						
							<rect id="SVGID_28_" x="78.9" y="321.9" transform="matrix(0.6381 -0.77 0.77 0.6381 -302.1686 246.8424)" width="65.3" height="246"/>
					</defs>
					<clipPath id="SVGID_29_">
						<use xlink:href="#SVGID_28_"  style="overflow:visible;"/>
					</clipPath>
					<g class="st31">
						<path class="st0" d="M84.1,361l0.1-4.6l18.5,0.5l4.6,0.1l-0.1,4.6l-1,32.3l-0.1,4.6l-4.6-0.1l-41.6-1.2l-0.1,4.6l46.2,1.4
							l-0.1,4.6l-46.2-1.4l-4.6-0.2l0.1-4.6l0.1-4.6l0.1-4.6l4.6,0.1l41.6,1.2l1-32.3l-13.9-0.4L88,384.2l4.6,0.1l0.6-18.5l4.6,0.1
							l-0.7,23.1l-4.6-0.1l0,0l-4.6-0.1l-4.6-0.1l0,0l0.1-4.6l0,0L84.1,361L84.1,361z M55.5,387.9l4.6,0.1l0.8-27.7l13.9,0.4
							l-0.7,23.1l-4.6-0.1l0.6-18.5l-4.6-0.2L65,383.5l0,0l-0.1,4.6l0,0l4.6,0.1l0,0l4.6,0.1l4.6,0.1l1-32.3l0,0l-18.5-0.6l-4.6-0.1
							l0,0L55.5,387.9z"/>
						<path class="st0" d="M84.1,414.8l0.1-4.6l18.5,0.6l4.6,0.1l-0.1,4.6l-1,32.3l-0.1,4.6l-4.6-0.1l-41.5-1.2l-0.1,4.6l46.2,1.4
							l-0.1,4.6l-46.2-1.4l-4.7-0.1l0.1-4.6l0.2-4.6l0.1-4.6l4.6,0.1l41.6,1.2l1-32.3L88.7,415L88,438.1l4.6,0.1l0.6-18.5l4.6,0.1
							L97.1,443l-4.6-0.1l0,0l-4.6-0.1l-4.6-0.1l0,0l0.1-4.6l0,0L84.1,414.8L84.1,414.8z M55.5,441.7l4.6,0.1l0.8-27.7l13.9,0.4
							l-0.7,23.1l-4.6-0.1l0.6-18.5l-4.6-0.1L65,437.4l0,0l-0.2,4.6l0,0l4.6,0.1l0,0l4.6,0.1l4.6,0.1l1-32.3l0,0l-18.5-0.5l-4.6-0.1
							l0,0L55.5,441.7z"/>
						<path class="st0" d="M133.7,461.7l-0.1,5.1l-20.4-0.6L108,466l0.2-5.1l1.1-35.8l0.2-5.1l5.1,0.2l46,1.4l0.1-5.1l-51.1-1.5
							l0.2-5.1l51.1,1.5l5.1,0.1l-0.1,5.1l-0.2,5.1l-0.1,5.1l-5.1-0.2l-46-1.4l-1.1,35.8l15.3,0.5l0.8-25.5l-5.1-0.1l-0.6,20.5
							l-5.1-0.1l0.8-25.6l5.1,0.2l0,0l5.1,0.1l5.1,0.1l0,0l-0.1,5.1l0,0L133.7,461.7L133.7,461.7z M165.3,431.9l-5.1-0.1l-0.9,30.7
							L144,462l0.8-25.6l5.1,0.1l-0.6,20.4l5.1,0.2l0.6-20.5l0,0l0.1-5.1l0,0l-5.1-0.1l0,0l-5.1-0.1l-5.1-0.1l-1.1,35.9l0,0
							l20.4,0.6l5.1,0.1l0,0L165.3,431.9z"/>
						<path class="st0" d="M198.2,412.8l0.1-5.1l20.5,0.6l5.1,0.1l-0.1,5.1l-1.1,35.8l-0.2,5.1l-5.1-0.1l-46-1.4l-0.2,5.1l51.1,1.5
							l-0.1,5.1l-51.1-1.5L166,463l0.1-5.1l0.1-5.1l0.2-5.1l5.1,0.1l46,1.4l1.1-35.8l-15.3-0.4l-0.8,25.6l5.1,0.2l0.6-20.5l5.1,0.1
							l-0.8,25.6l-5.1-0.1l0,0l-5.1-0.1l-5.1-0.2l0,0l0.1-5.1l0,0L198.2,412.8L198.2,412.8z M166.6,442.6l5.1,0.1l0.9-30.7l15.3,0.5
							l-0.8,25.6l-5.1-0.2l0.6-20.5l-5.1-0.1l-0.6,20.5l0,0l-0.2,5.1l0,0l5.1,0.2l0,0l5.1,0.1l5.1,0.1l1.1-35.8l0,0l-20.4-0.6
							l-5.1-0.1l0,0L166.6,442.6z"/>
						<path class="st0" d="M141.6,357.1l0.1-5.1l20.4,0.6l5.1,0.1l-0.2,5.1l-1.1,35.8l-0.1,5.1l-5.1-0.1l-46-1.4l-0.2,5.1l51.1,1.5
							l-0.1,5.1l-51.1-1.5l-5.1-0.1l0.2-5.1l0.2-5.1l0.2-5.1l5.1,0.1l46,1.4l1.1-35.8l-15.3-0.5l-0.7,25.6l5.1,0.1l0.6-20.5l5.1,0.1
							l-0.8,25.6l-5.1-0.1l0,0l-5.1-0.1l-5.1-0.1l0,0l0.2-5.1l0,0L141.6,357.1L141.6,357.1z M110,386.8l5.1,0.1l0.9-30.7l15.3,0.5
							l-0.8,25.6l-5.1-0.2l0.6-20.5l-5.1-0.1l-0.6,20.4l0,0l-0.2,5.1l0,0l5.1,0.2l0,0l5.1,0.1l5.1,0.1l1.1-35.8l0,0l-20.4-0.6
							L111,351l0,0L110,386.8z"/>
					</g>
				</g>
			</g>
		</g>
		<path class="st32" d="M570.8,167.1c0.1,4.2-0.8,8.3-2.6,12.1c-0.4,0.8-0.8,1.6-1.3,2.4c-0.4,0.5-1.1,0.7-1.7,0.4
			c-0.7-0.3-1.1-1.1-0.8-1.8c0.3-0.7,0.7-1.4,1-2.1c1-2.1,1.7-4.4,2.1-6.7c0.3-2.1,0.4-4.2,0.2-6.2c-0.2-2.5-0.8-4.9-1.8-7.2
			c-0.5-1-1-2.1-1.4-3.1c-0.3-0.6,0-1.3,0.5-1.7c0.7-0.4,1.6-0.3,2.1,0.3C569.6,157.7,570.8,162.4,570.8,167.1"/>
		<path class="st32" d="M561.5,167.1c0-2.2-0.5-4.3-1.3-6.3c-0.4-1-0.8-1.9-1.3-2.8c-0.4-0.5-0.2-1.3,0.3-1.7
			c0.5-0.4,1.2-0.5,1.8-0.3c0.2,0.1,0.4,0.3,0.6,0.6c3.5,5.8,4,12.9,1.4,19.1c-0.4,0.9-0.9,1.8-1.3,2.6c-0.1,0.2-0.3,0.4-0.5,0.6
			c-0.5,0.4-1.2,0.4-1.7,0c-0.5-0.4-0.7-1.2-0.4-1.8c0.5-1.1,1-2.2,1.5-3.4C561.2,171.6,561.6,169.4,561.5,167.1"/>
		<path class="st32" d="M558.2,167.8c0,2.6-0.7,5.2-2,7.5c-0.2,0.5-0.7,0.9-1.3,1.1c-0.8,0.1-1.5-0.4-1.7-1.2c0-0.2,0-0.5,0.1-0.7
			c0.3-0.8,0.8-1.6,1.1-2.5c1.2-3.1,1.1-6.6-0.4-9.6c-0.3-0.6-0.5-1.1-0.7-1.7c-0.2-0.7,0.2-1.5,1-1.7c0.1,0,0.1,0,0.2,0
			c0.8-0.1,1.5,0.4,1.8,1.1C557.5,162.3,558.2,165,558.2,167.8"/>
		<path class="st32" d="M552.3,167.6c0,1.7-0.5,3.4-1.4,4.8c-0.3,0.4-0.7,0.8-1.1,1.1c-0.3,0.2-0.8,0.2-1.1,0
			c-0.8-0.3-1.1-1.2-0.8-2c0,0,0,0,0,0c0.3-0.5,0.6-1.1,0.8-1.6c0.7-1.8,0.5-3.9-0.5-5.5c-0.2-0.3-0.3-0.6-0.5-0.9
			c-0.2-0.7,0.1-1.4,0.7-1.7c0.6-0.4,1.3-0.3,1.8,0.3c1,1.2,1.7,2.7,1.9,4.3C552.2,166.7,552.2,167.1,552.3,167.6"/>
		<path class="st33" d="M146.3,217v10.8l18.5-0.1v-11.6l-18.5,0.2C146.2,216.6,146.3,216.8,146.3,217z"/>
		<path class="st33" d="M119.8,217.1c0-0.2,0-0.4,0-0.6h-17.7v11.2l17.7-0.1L119.8,217.1z"/>
		<path class="st33" d="M134.2,252.1h-2.1c-5.8,0-10.8-4-12-9.7h-17.9v3.1c0,5.3,4.3,9.6,9.7,9.6c0,0,0,0,0,0l43.3-0.1
			c5.3,0,9.6-4.4,9.6-9.7c0,0,0,0,0,0v-3l-18.8,0.2C144.8,248,139.9,252,134.2,252.1z"/>
		<path class="st33" d="M119.8,239.9v-10.6l-17.7,0v11.4l17.7-0.1C119.9,240.5,119.8,240.2,119.8,239.9z"/>
		<path class="st33" d="M132,204.9h2.1c5.9,0,10.9,4.1,12,9.9l18.7-0.2v-3.1c0-5.3-4.4-9.6-9.7-9.6c0,0,0,0,0,0l-43.3,0.1
			c-5.3,0-9.6,4.3-9.6,9.7c0,0,0,0,0,0v3.2l17.8-0.1C121,209.1,126.1,204.9,132,204.9z"/>
		<path class="st33" d="M134.1,206.5H132c-5.8,0-10.6,4.8-10.5,10.6l0.1,22.8c0,5.8,4.8,10.6,10.6,10.5h2.1
			c5.8,0,10.6-4.8,10.6-10.6l-0.1-22.8C144.6,211.2,139.9,206.5,134.1,206.5z"/>
		<path class="st33" d="M146.3,239.8c0,0.4,0,0.7-0.1,1l18.5-0.2v-11.3l-18.5,0.1V239.8z"/>
		<g id="Name">
			<path class="st34" d="M113.7,360.4h1.6v12.5h-1.6l-5.7-9.4v9.4h-1.6v-12.4h1.6l5.8,9.5V360.4z"/>
			<path class="st34" d="M123.1,360.4l3.4,5.4v7H125v-3.4h-5.7v3.4h-1.6v-7l3.4-5.5L123.1,360.4z M119.2,367.9h5.7v-1.6l-2.7-4.3
				h-0.3l-2.7,4.4L119.2,367.9z"/>
			<path class="st34" d="M140.7,372.8h-1.5v-8.5l-3.6,8.5H134l-3.7-8.5v8.5h-1.6v-12.5h1.6l4.4,10.3l4.4-10.3h1.5V372.8z"/>
			<path class="st34" d="M144.6,362.5v3.2h6.3v1.6h-6.2v3.3l0.6,0.6h6.1v1.6h-6.8l-1.6-1.6v-9.3l1.6-1.6h6.8v1.6h-6.1L144.6,362.5z"
				/>
			<path class="st34" d="M169.6,366.7v4.5l-1.6,1.5h-5.4l-1.6-1.5v-1.3h1.6v0.7l0.6,0.6h4.2l0.6-0.6v-3.1l-0.6-0.7h-5.1l-1.6-1.5
				v-3.4l1.6-1.5h5.5l1.6,1.6v1.3h-1.6v-0.7l-0.6-0.6h-4.2l-0.6,0.6v2.1l0.6,0.6h5.1L169.6,366.7z"/>
			<path class="st34" d="M173.5,372.7l-1.5-1.5v-10.9h1.6v10.3l0.6,0.6h4.5l0.6-0.6v-10.3h1.6v10.9l-1.6,1.5L173.5,372.7z"/>
			<path class="st34" d="M189.8,360.2l1.6,1.5v3.9l-0.8,0.8l0.8,0.8v5.5h-1.6v-4.8l-0.6-0.7h-4.6v5.5h-1.6v-12.5L189.8,360.2z
				 M189.8,365v-2.6l-0.6-0.6h-4.6v3.9h4.6L189.8,365z"/>
			<path class="st34" d="M201,360.1h1.6v12.5H201l-5.7-9.4v9.5h-1.6v-12.5h1.6l5.8,9.5L201,360.1z"/>
			<path class="st34" d="M210.3,360.1l3.4,5.5v7h-1.6v-3.4h-5.7v3.4h-1.6v-7l3.4-5.5L210.3,360.1z M206.4,367.6h5.7V366l-2.7-4.3
				h-0.3l-2.7,4.3V367.6z"/>
			<path class="st34" d="M228,372.5h-1.5V364l-3.6,8.5h-1.6l-3.7-8.5v8.5H216v-12.5h1.6l4.5,10.3l4.4-10.3h1.5V372.5z"/>
			<path class="st34" d="M231.8,362.3v3.2h6.3v1.5h-6.2v3.3l0.6,0.6h6.1v1.6h-6.8l-1.5-1.5v-9.3l1.6-1.6h6.8v1.6h-6.1L231.8,362.3z"
				/>
		</g>
		<g id="Number">
			<path class="st34" d="M112.1,298.7l0.1,28.2h-3.5l-0.1-23.3l-1.6,1.6l-2.5-2.5l4.1-4.1H112.1L112.1,298.7z"/>
			<path class="st34" d="M136,323.3v3.5l-18.8,0.1v-6.5l14.7-13v-3.9l-1.4-1.4h-8.3l-1.4,1.4v1.5h-3.5v-2.9l3.5-3.5h11.2l3.5,3.5
				v6.5l-14.7,13v1.8L136,323.3z"/>
			<path class="st34" d="M156.5,298.6l3.5,3.5v7.6l-1.8,1.7l1.8,1.8v10l-3.5,3.5h-11.8l-3.5-3.5v-2.9h3.5v1.5l1.4,1.4h8.9l1.4-1.4
				v-7.1l-1.4-1.4h-8v-3.5h8l1.4-1.4v-4.7l-1.4-1.4h-8.3l-1.4,1.4v1.4h-3.5v-2.9l3.5-3.5L156.5,298.6z"/>
			<path class="st34" d="M183.5,319v3.5h-1.8v4.1h-3.5v-4.1h-12.9v-5.3l10.5-18.9h5.9l0,20.6H183.5z M168.8,319.1h9.4l-0.1-17h-0.7
				l-8.7,15.6L168.8,319.1z"/>
			<path class="st34" d="M235.7,308.3l3.5,3.5V323l-3.4,3.5H224l-3.5-3.5v-3h3.5v1.5l1.4,1.5h8.8l1.4-1.4v-8.3l-1.4-1.4l-13.8,0
				v-13.5l17.6,0v3.5h-14v6.5L235.7,308.3z"/>
			<path class="st34" d="M259.7,308.2l3.5,3.5v11.2l-3.5,3.5h-11.8l-3.5-3.4l-0.1-21.2l3.5-3.5H259l3.5,3.5v2.9h-3.5v-1.4l-1.4-1.4
				h-8.3l-1.4,1.4v5L259.7,308.2z M259.7,321.5v-8.3l-1.4-1.5h-8.9l-1.4,1.5v8.3l1.5,1.5h8.8L259.7,321.5z"/>
			<path class="st34" d="M268.5,298.2l18.8-0.1v8.8l-7.6,6v13.4h-3.5v-14.7l7.6-6.1v-3.9H272v2.9h-3.5L268.5,298.2z"/>
			<path class="st34" d="M309.1,310.4l2.4,2.4v10l-3.5,3.5h-11.8l-3.5-3.5v-10.1l2.4-2.3l-1.2-1.2v-7.6l3.5-3.5h9.4l3.5,3.5v7.6
				L309.1,310.4z M308,321.3v-7.1l-1.4-1.4h-8.9l-1.4,1.4v7.1l1.4,1.5h8.9L308,321.3z M297.3,303.1v4.8l1.4,1.4h6.5l1.4-1.4v-4.8
				l-1.4-1.4h-6.5L297.3,303.1z"/>
			<path class="st34" d="M363.6,297.9l3.5,3.5l0.1,21.2l-3.5,3.5H352l-3.5-3.5v-3h3.5v1.5l1.5,1.5h8.8l1.4-1.5v-5.1H352l-3.5-3.5
				v-11.1l3.5-3.5L363.6,297.9z M363.6,311.1v-8.2l-1.4-1.4h-8.9l-1.4,1.4v8.2l1.5,1.4h8.8L363.6,311.1z"/>
			<path class="st34" d="M387.7,297.8l3.5,3.5l0.1,21.2l-3.5,3.5h-11.8l-3.5-3.5l-0.1-21.2l3.5-3.5L387.7,297.8z M387.8,321.1
				l-0.1-18.3l-1.5-1.4h-8.8l-1.5,1.5v18.2l1.4,1.5h8.9L387.8,321.1z"/>
			<path class="st34" d="M404.5,297.8l0.1,28.2H401l-0.1-23.2l-1.6,1.6l-2.5-2.5l4.1-4.1L404.5,297.8L404.5,297.8z"/>
			<path class="st34" d="M428.4,322.4v3.5l-18.8,0.1v-6.5l14.7-13v-3.9l-1.4-1.4h-8.3l-1.4,1.4v1.4h-3.5v-2.9l3.5-3.5h11.2l3.5,3.5
				v6.5l-14.7,13v1.8L428.4,322.4z"/>
			<path class="st34" d="M464.8,297.7l3.5,3.5v7.6l-1.8,1.7l1.8,1.8v10l-3.4,3.5h-11.8l-3.5-3.5v-2.9h3.5v1.5l1.5,1.4h8.9l1.4-1.4
				v-7.1l-1.4-1.4h-8v-3.5h8l1.4-1.5v-4.7l-1.4-1.4h-8.3l-1.4,1.4v1.4h-3.5v-2.9l3.5-3.5L464.8,297.7z"/>
			<path class="st34" d="M491.8,318.1v3.5H490v4.1h-3.5v-4.1h-12.9v-5.3l10.5-18.9h5.9l0.1,20.6L491.8,318.1z M477.1,318.1h9.4l0-17
				h-0.6l-8.7,15.6L477.1,318.1z"/>
			<path class="st34" d="M512.2,307.5l3.5,3.4v11.2l-3.5,3.5h-11.8l-3.5-3.5v-3h3.5v1.5l1.4,1.5h8.8l1.4-1.4v-8.3l-1.5-1.4H497
				l0-13.5l17.6-0.1v3.6h-14v6.5L512.2,307.5z"/>
			<path class="st34" d="M536.2,307.3l3.5,3.5v11.2l-3.5,3.5h-11.8l-3.5-3.5l-0.1-21.2l3.5-3.5h11.2l3.5,3.5v2.9h-3.5v-1.4l-1.4-1.4
				h-8.3l-1.4,1.4v5L536.2,307.3z M536.2,320.6v-8.3l-1.5-1.5h-8.9l-1.4,1.4v8.3l1.5,1.5h8.8L536.2,320.6z"/>
		</g>
		<g>
			<path class="st32" d="M502,376.5c-0.1-1.4-0.2-3.1-0.2-4.4h0c-0.4,1.2-0.8,2.5-1.3,3.9l-1.9,5h-1l-1.7-4.9
				c-0.5-1.4-0.9-2.8-1.2-4h0c0,1.3-0.1,3-0.2,4.5l-0.3,4.4h-1.3l0.7-10.3h1.7l1.8,5c0.4,1.3,0.8,2.4,1.1,3.5h0
				c0.3-1,0.6-2.2,1.1-3.5l1.9-5h1.7l0.7,10.3h-1.3L502,376.5z"/>
			<path class="st32" d="M514.7,376.5c-0.1-1.4-0.2-3.1-0.2-4.4h0c-0.4,1.2-0.8,2.5-1.3,3.9l-1.9,5h-1l-1.7-4.9
				c-0.5-1.4-0.9-2.8-1.2-4h0c0,1.3-0.1,3-0.2,4.5l-0.3,4.4h-1.3l0.7-10.3h1.7l1.8,5c0.4,1.3,0.8,2.4,1.1,3.5h0
				c0.3-1,0.6-2.2,1.1-3.5l1.9-5h1.7l0.7,10.3H515L514.7,376.5z"/>
			<path class="st32" d="M517.2,381.6l4.4-11h1.1l-4.4,11H517.2z"/>
			<path class="st32" d="M526.2,381v-4.4l-3.4-5.9h1.6l1.5,2.8c0.4,0.8,0.7,1.4,1.1,2.1h0c0.3-0.7,0.7-1.3,1.1-2.1l1.5-2.8h1.6
				l-3.6,5.9v4.4H526.2z"/>
			<path class="st32" d="M534.8,381v-4.4l-3.4-5.9h1.6l1.5,2.8c0.4,0.8,0.7,1.4,1.1,2.1h0c0.3-0.7,0.7-1.3,1.1-2.1l1.5-2.8h1.6
				l-3.6,5.9v4.4H534.8z"/>
		</g>
	</g>
</g>
</svg>
