<svg xmlns="http://www.w3.org/2000/svg" viewBox="0 0 1961.61 41.18"><defs><style>.cls-1{fill:none;stroke:#004b89;stroke-miterlimit:10;}</style></defs><title>footer</title><g id="Layer_2" data-name="Layer 2"><g id="Layer_1-2" data-name="Layer 1"><path class="cls-1" d="M44.9,18.34l-3.55-.11.43-14.17.1-3.55,3.55.11,24.8.74,3.55.11L73.67,5l-1,31.9,3.54.1L77.32,1.57l3.54.11-1,35.44-.11,3.54-3.54-.1-3.55-.11-3.54-.11.1-3.54,1-31.89L45.32,4.16,45,14.8l17.72.53.11-3.55-14.18-.42.11-3.55,17.72.53-.11,3.55h0l-.1,3.54L66.16,19h0l-3.54-.1h0L44.9,18.34Zm20.62,21.9.11-3.55-21.26-.63.31-10.63L62.4,26l-.1,3.54-14.18-.42L48,32.62,62.19,33h0l3.55.11h0l.1-3.54h0L66,26.06l.1-3.54-24.8-.74h0L40.82,36l-.1,3.55h0Z"/><path class="cls-1" d="M4.69,18.34l-3.54-.11L1.57,4.06,1.68.51,5.22.62,30,1.36l3.54.11L33.47,5l-.95,31.9,3.54.1L37.12,1.57l3.54.11L39.6,37.12l-.1,3.54L36,40.56l-3.54-.11-3.54-.11L29,36.8l1-31.89L5.12,4.16,4.8,14.8l17.72.53.1-3.55L8.45,11.36l.1-3.55,17.72.53-.1,3.55h0l-.11,3.54L26,19h0l-3.55-.1h0L4.69,18.34Zm20.63,21.9.11-3.55L4.16,36.06l.32-10.63L22.2,26l-.1,3.54L7.92,29.08l-.11,3.54L22,33h0l3.54.11h0l.11-3.54h0l.11-3.55.1-3.54L1,21.78H1L.62,36,.51,39.5h0Z"/><path class="cls-1" d="M127.38,18.34l-3.54-.11.42-14.17.11-3.55,3.54.11,24.81.74,3.54.11L156.16,5l-1,31.9,3.55.1,1.06-35.44,3.54.11-1.06,35.44-.1,3.54-3.55-.1-3.54-.11-3.55-.11.11-3.54,1-31.89L127.8,4.16l-.31,10.64,17.72.53.1-3.55-14.17-.42.1-3.55L149,8.34l-.1,3.55h0l-.11,3.54L148.64,19h0l-3.54-.1h0l-17.72-.53ZM148,40.24l.11-3.55-21.27-.63.32-10.63,17.72.53-.11,3.54-14.17-.42-.11,3.54,14.18.42h0l3.54.11h0l.11-3.54h0l.1-3.55.11-3.54-24.81-.74h0L123.31,36l-.11,3.55h0Z"/><path class="cls-1" d="M87.18,18.34l-3.55-.11.43-14.17.1-3.55,3.55.11,24.8.74,3.55.11L116,5l-1,31.9,3.54.1L119.6,1.57l3.55.11-1.06,35.44L122,40.66l-3.54-.1-3.55-.11-3.54-.11.11-3.54,1-31.89L87.6,4.16,87.28,14.8l17.72.53.11-3.55-14.18-.42L91,7.81l17.72.53-.11,3.55h0l-.1,3.54L108.44,19h0l-3.54-.1h0l-17.72-.53Zm20.63,21.9.1-3.55-21.26-.63L87,25.43l17.72.53-.11,3.54L90.4,29.08l-.1,3.54,14.17.42h0l3.55.11h0l.1-3.54h0l.11-3.55.11-3.54-24.81-.74h0L83.11,36,83,39.5h0Z"/><path class="cls-1" d="M207.79,18.34l-3.55-.11.43-14.17.1-3.55,3.55.11,24.8.74,3.55.11L236.56,5l-.95,31.9,3.54.1,1.06-35.44,3.54.11L242.7,37.12l-.11,3.54-3.54-.1-3.55-.11L232,40.34l.1-3.54,1-31.89-24.81-.75-.32,10.64,17.72.53.11-3.55-14.18-.42.11-3.55,17.72.53-.11,3.55h0l-.1,3.54L229.05,19h0l-3.54-.1h0l-17.72-.53Zm20.62,21.9.11-3.55-21.26-.63.31-10.63,17.72.53-.1,3.54L211,29.08l-.1,3.54,14.17.42h0l3.55.11h0l.1-3.54h0l.11-3.55.1-3.54-24.8-.74h0L203.71,36l-.1,3.55h0Z"/><path class="cls-1" d="M167.58,18.34,164,18.23l.42-14.17.11-3.55,3.54.11,24.81.74,3.54.11L196.36,5l-1,31.9L199,37,200,1.57l3.54.11-1.06,35.44-.1,3.54-3.55-.1-3.54-.11-3.54-.11.1-3.54.95-31.89L168,4.16l-.32,10.64,17.72.53.1-3.55-14.17-.42.11-3.55,17.71.53-.1,3.55h0L189,15.43l-.1,3.54h0l-3.55-.1h0l-17.72-.53Zm20.63,21.9.11-3.55-21.27-.63.32-10.63,17.72.53L185,29.5l-14.18-.42-.11,3.54,14.18.42h0l3.54.11h0l.11-3.54h0l.11-3.55.1-3.54-24.81-.74h0L163.51,36l-.11,3.55h0Z"/><path class="cls-1" d="M290.27,18.34l-3.54-.11.42-14.17.11-3.55,3.54.11,24.81.74,3.54.11L319.05,5l-1,31.9,3.55.1L322.7,1.57l3.54.11-1.06,35.44-.1,3.54-3.55-.1L318,40.45l-3.55-.11.11-3.54.95-31.89-24.81-.75-.31,10.64,17.72.53.1-3.55L294,11.36l.1-3.55,17.72.53-.1,3.55h0l-.11,3.54L311.53,19h0l-3.54-.1h0l-17.72-.53Zm20.63,21.9.11-3.55-21.27-.63.32-10.63,17.72.53-.11,3.54-14.17-.42-.11,3.54,14.18.42h0l3.54.11h0l.11-3.54h0l.1-3.55.11-3.54-24.81-.74h0L286.2,36l-.11,3.55h0Z"/><path class="cls-1" d="M250.07,18.34l-3.55-.11L247,4.06l.1-3.55,3.55.11,24.81.74,3.54.11L278.84,5l-.95,31.9,3.54.1,1.06-35.44,3.55.11L285,37.12l-.11,3.54-3.54-.1-3.55-.11-3.54-.11.11-3.54.95-31.89-24.81-.75-.32,10.64,17.72.53.11-3.55-14.18-.42.11-3.55,17.72.53-.11,3.55h0l-.1,3.54L271.33,19h0l-3.54-.1h0l-17.72-.53Zm20.63,21.9.1-3.55-21.26-.63.32-10.63,17.72.53-.11,3.54-14.18-.42-.1,3.54,14.17.42h0l3.55.11h0l.1-3.54h0l.11-3.55.11-3.54-24.81-.74h0L246,36l-.11,3.55h0Z"/><path class="cls-1" d="M372.76,18.34l-3.55-.11.43-14.17.1-3.55,3.55.11,24.8.74,3.55.11L401.53,5l-.95,31.9,3.54.1,1.06-35.44,3.54.11-1.05,35.44-.11,3.54-3.54-.1-3.55-.11-3.54-.11.1-3.54,1-31.89-24.81-.75-.32,10.64,17.72.53.11-3.55-14.18-.42.11-3.55,17.72.53-.11,3.55h0l-.1,3.54L394,19h0l-3.54-.1h0l-17.72-.53Zm20.62,21.9.11-3.55-21.26-.63.31-10.63,17.72.53-.1,3.54L376,29.08l-.1,3.54,14.17.42h0l3.55.11h0l.1-3.54h0l.11-3.55.1-3.54-24.8-.74h0L368.68,36l-.1,3.55h0Z"/><path class="cls-1" d="M332.55,18.34,329,18.23l.42-14.17.11-3.55,3.54.11,24.81.74,3.54.11L361.33,5l-.95,31.9,3.54.1L365,1.57l3.54.11-1.06,35.44-.1,3.54-3.55-.1-3.54-.11-3.54-.11.1-3.54.95-31.89L333,4.16l-.32,10.64,17.72.53.1-3.55-14.17-.42.1-3.55,17.72.53-.1,3.55h0l-.11,3.54-.1,3.54h0l-3.55-.1h0l-17.72-.53Zm20.63,21.9.11-3.55L332,36.06l.32-10.63,17.72.53L350,29.5l-14.18-.42-.11,3.54,14.18.42h0l3.54.11h0l.11-3.54h0l.11-3.55.1-3.54-24.81-.74h0L328.48,36l-.11,3.55h0Z"/><path class="cls-1" d="M455.24,18.34l-3.54-.11.42-14.17.11-3.55,3.54.11,24.81.74,3.54.11L484,5l-1,31.9,3.55.1,1.06-35.44,3.54.11-1.06,35.44-.1,3.54-3.55-.1L483,40.45l-3.55-.11.11-3.54,1-31.89-24.81-.75-.31,10.64,17.72.53.1-3.55L459,11.36l.1-3.55,17.72.53-.1,3.55h0l-.11,3.54L476.5,19h0l-3.54-.1h0l-17.72-.53Zm20.63,21.9.11-3.55-21.27-.63L455,25.43l17.72.53-.11,3.54-14.17-.42-.11,3.54,14.18.42h0l3.54.11h0l.11-3.54h0l.1-3.55.11-3.54-24.81-.74h0L451.17,36l-.11,3.55h0Z"/><path class="cls-1" d="M415,18.34l-3.55-.11.43-14.17L412,.51l3.55.11,24.8.74,3.55.11L443.81,5l-.95,31.9,3.54.1,1.06-35.44,3.55.11L450,37.12l-.11,3.54-3.54-.1-3.55-.11-3.54-.11.11-3.54.95-31.89-24.81-.75-.32,10.64,17.72.53.11-3.55-14.18-.42.11-3.55,17.72.53-.11,3.55h0l-.1,3.54L436.3,19h0l-3.54-.1h0L415,18.34Zm20.63,21.9.1-3.55-21.26-.63.32-10.63,17.72.53-.11,3.54-14.18-.42-.1,3.54,14.17.42h0l3.55.11h0l.1-3.54h0l.11-3.55.11-3.54-24.81-.74h0L411,36l-.11,3.55h0Z"/><path class="cls-1" d="M535.65,18.34l-3.55-.11.43-14.17.1-3.55,3.55.11,24.8.74,3.55.11L564.42,5l-.95,31.9L567,37l1.06-35.44,3.54.11-1.05,35.44-.11,3.54-3.54-.1-3.55-.11-3.54-.11.1-3.54,1-31.89-24.81-.75-.32,10.64,17.72.53.11-3.55-14.18-.42.11-3.55,17.72.53-.11,3.55h0l-.1,3.54L556.91,19h0l-3.54-.1h0l-17.72-.53Zm20.62,21.9.11-3.55-21.26-.63.31-10.63,17.72.53-.1,3.54-14.18-.42-.1,3.54,14.17.42h0l3.55.11h0l.1-3.54h0l.11-3.55.1-3.54L532,21.78h0L531.57,36l-.1,3.55h0Z"/><path class="cls-1" d="M495.44,18.34l-3.54-.11.42-14.17.11-3.55L496,.62l24.81.74,3.54.11L524.22,5l-1,31.9,3.54.1,1.06-35.44,3.54.11-1.06,35.44-.1,3.54-3.55-.1-3.54-.11-3.54-.11.1-3.54.95-31.89-24.8-.75-.32,10.64,17.72.53.1-3.55-14.17-.42.1-3.55L517,8.34l-.1,3.55h0l-.11,3.54-.1,3.54h0l-3.55-.1h0l-17.72-.53Zm20.63,21.9.11-3.55-21.27-.63.32-10.63L513,26l-.1,3.54-14.18-.42-.11,3.54,14.18.42h0l3.54.11h0l.11-3.54h0l.11-3.55.1-3.54-24.81-.74h0L491.37,36l-.11,3.55h0Z"/><path class="cls-1" d="M618.13,18.34l-3.54-.11L615,4.06l.11-3.55,3.54.11,24.81.74,3.54.11L646.91,5l-1,31.9,3.55.1,1.06-35.44,3.54.11L653,37.12l-.1,3.54-3.55-.1-3.54-.11-3.55-.11.11-3.54,1-31.89-24.81-.75-.31,10.64,17.72.53.1-3.55-14.17-.42.1-3.55,17.72.53-.1,3.55h0l-.11,3.54L639.39,19h0l-3.54-.1h0l-17.72-.53Zm20.63,21.9.11-3.55-21.27-.63.32-10.63,17.72.53-.11,3.54-14.17-.42-.11,3.54,14.18.42h0l3.54.11h0l.11-3.54h0l.1-3.55.11-3.54-24.81-.74h0L614.06,36,614,39.5h0Z"/><path class="cls-1" d="M577.93,18.34l-3.55-.11.43-14.17.1-3.55,3.55.11,24.8.74,3.55.11L606.7,5l-1,31.9,3.54.1,1.06-35.44,3.55.11-1.06,35.44-.11,3.54-3.54-.1-3.55-.11-3.54-.11.11-3.54.95-31.89-24.81-.75L578,14.8l17.72.53.11-3.55-14.18-.42.11-3.55,17.72.53-.11,3.55h0l-.1,3.54L599.19,19h0l-3.54-.1h0l-17.72-.53Zm20.63,21.9.1-3.55-21.26-.63.32-10.63,17.72.53-.11,3.54-14.18-.42-.1,3.54,14.17.42h0l3.55.11h0l.1-3.54h0l.11-3.55.11-3.54-24.81-.74h0L573.86,36l-.11,3.55h0Z"/><path class="cls-1" d="M698.9,18.34l-3.55-.11.43-14.17.1-3.55,3.55.11,24.8.74,3.55.11L727.67,5l-.95,31.9,3.54.1,1.06-35.44,3.54.11-1.05,35.44-.11,3.54-3.54-.1-3.55-.11-3.54-.11.1-3.54,1-31.89-24.81-.75L699,14.8l17.72.53.11-3.55-14.18-.42.11-3.55,17.72.53-.11,3.55h0l-.1,3.54L720.16,19h0l-3.54-.1h0l-17.72-.53Zm20.62,21.9.11-3.55-21.26-.63.31-10.63L716.4,26l-.1,3.54-14.18-.42-.1,3.54,14.17.42h0l3.55.11h0l.1-3.54h0l.11-3.55.1-3.54-24.8-.74h0L694.82,36l-.1,3.55h0Z"/><path class="cls-1" d="M658.69,18.34l-3.54-.11.42-14.17.11-3.55,3.54.11L684,1.36l3.54.11L687.47,5l-1,31.9,3.54.1,1.06-35.44,3.54.11L693.6,37.12l-.1,3.54-3.55-.1-3.54-.11-3.54-.11.1-3.54.95-31.89-24.8-.75L658.8,14.8l17.72.53.1-3.55-14.17-.42.1-3.55,17.72.53-.1,3.55h0l-.11,3.54L680,19h0l-3.55-.1h0l-17.72-.53Zm20.63,21.9.11-3.55-21.27-.63.32-10.63L676.2,26l-.1,3.54-14.18-.42-.11,3.54L676,33h0l3.54.11h0l.11-3.54h0l.11-3.55.1-3.54L655,21.78h0L654.62,36l-.11,3.55h0Z"/><path class="cls-1" d="M781.38,18.34l-3.54-.11.42-14.17.11-3.55,3.54.11,24.81.74,3.54.11L810.16,5l-1,31.9,3.55.1,1.06-35.44,3.54.11-1.06,35.44-.1,3.54-3.55-.1-3.54-.11-3.55-.11.11-3.54,1-31.89L781.8,4.16l-.31,10.64,17.72.53.1-3.55-14.17-.42.1-3.55L803,8.34l-.1,3.55h0l-.11,3.54L802.64,19h0l-3.54-.1h0l-17.72-.53ZM802,40.24l.11-3.55-21.27-.63.32-10.63,17.72.53-.11,3.54-14.17-.42-.11,3.54,14.18.42h0l3.54.11h0l.11-3.54h0l.1-3.55.11-3.54-24.81-.74h0L777.31,36l-.11,3.55h0Z"/><path class="cls-1" d="M741.18,18.34l-3.55-.11.43-14.17.1-3.55,3.55.11,24.8.74,3.55.11L770,5l-1,31.9,3.54.1L773.6,1.57l3.55.11-1.06,35.44L776,40.66l-3.54-.1-3.55-.11-3.54-.11.11-3.54.95-31.89L741.6,4.16l-.32,10.64,17.72.53.11-3.55-14.18-.42L745,7.81l17.72.53-.11,3.55h0l-.1,3.54L762.44,19h0l-3.54-.1h0l-17.72-.53Zm20.63,21.9.1-3.55-21.26-.63L741,25.43l17.72.53-.11,3.54-14.18-.42-.1,3.54,14.17.42h0l3.55.11h0l.1-3.54h0l.11-3.55.11-3.54-24.81-.74h0L737.11,36,737,39.5h0Z"/><path class="cls-1" d="M861.79,18.34l-3.55-.11.43-14.17.1-3.55,3.55.11,24.8.74,3.55.11L890.56,5l-.95,31.9,3.54.1,1.06-35.44,3.54.11-1,35.44-.11,3.54-3.54-.1-3.55-.11L886,40.34l.1-3.54,1-31.89-24.81-.75-.32,10.64,17.72.53.11-3.55-14.18-.42.11-3.55,17.72.53-.11,3.55h0l-.1,3.54L883.05,19h0l-3.54-.1h0l-17.72-.53Zm20.62,21.9.11-3.55-21.26-.63.31-10.63,17.72.53-.1,3.54L865,29.08l-.1,3.54,14.17.42h0l3.55.11h0l.1-3.54h0l.11-3.55.1-3.54-24.8-.74h0L857.71,36l-.1,3.55h0Z"/><path class="cls-1" d="M821.58,18.34,818,18.23l.42-14.17.11-3.55,3.54.11,24.81.74,3.54.11L850.36,5l-1,31.9L853,37,854,1.57l3.54.11-1.06,35.44-.1,3.54-3.55-.1-3.54-.11-3.54-.11.1-3.54.95-31.89L822,4.16l-.32,10.64,17.72.53.1-3.55-14.17-.42.11-3.55,17.71.53-.1,3.55h0L843,15.43l-.1,3.54h0l-3.55-.1h0l-17.72-.53Zm20.63,21.9.11-3.55-21.27-.63.32-10.63,17.72.53L839,29.5l-14.18-.42-.11,3.54,14.18.42h0l3.54.11h0l.11-3.54h0l.11-3.55.1-3.54-24.81-.74h0L817.51,36l-.11,3.55h0Z"/><path class="cls-1" d="M944.27,18.34l-3.54-.11.42-14.17.11-3.55,3.54.11,24.81.74,3.54.11L973.05,5l-1,31.9,3.55.1L976.7,1.57l3.54.11-1.06,35.44-.1,3.54-3.55-.1L972,40.45l-3.55-.11.11-3.54,1-31.89-24.81-.75-.31,10.64,17.72.53.1-3.55L948,11.36l.1-3.55,17.72.53-.1,3.55h0l-.11,3.54L965.53,19h0l-3.54-.1h0l-17.72-.53Zm20.63,21.9.11-3.55-21.27-.63.32-10.63,17.72.53-.11,3.54-14.17-.42-.11,3.54,14.18.42h0l3.54.11h0l.11-3.54h0l.1-3.55.11-3.54-24.81-.74h0L940.2,36l-.11,3.55h0Z"/><path class="cls-1" d="M904.07,18.34l-3.55-.11L901,4.06l.1-3.55,3.55.11,24.81.74,3.54.11L932.84,5l-1,31.9,3.54.1,1.06-35.44,3.55.11L939,37.12l-.11,3.54-3.54-.1-3.55-.11-3.54-.11.11-3.54.95-31.89-24.81-.75-.32,10.64,17.72.53.11-3.55-14.18-.42.11-3.55,17.72.53-.11,3.55h0l-.1,3.54L925.33,19h0l-3.54-.1h0l-17.72-.53Zm20.63,21.9.1-3.55-21.26-.63.32-10.63,17.72.53-.11,3.54-14.18-.42-.1,3.54,14.17.42h0l3.55.11h0l.1-3.54h0l.11-3.55.11-3.54-24.81-.74h0L900,36l-.11,3.55h0Z"/><path class="cls-1" d="M1026.76,18.34l-3.55-.11.43-14.17.1-3.55,3.55.11,24.8.74,3.55.11L1055.53,5l-1,31.9,3.54.1,1.06-35.44,3.54.11-1,35.44-.11,3.54-3.54-.1-3.55-.11-3.54-.11.1-3.54,1-31.89-24.81-.75-.32,10.64,17.72.53.11-3.55-14.18-.42.11-3.55,17.72.53-.11,3.55h0l-.1,3.54L1048,19h0l-3.54-.1h0l-17.72-.53Zm20.62,21.9.11-3.55-21.26-.63.31-10.63,17.72.53-.1,3.54L1030,29.08l-.1,3.54,14.17.42h0l3.55.11h0l.1-3.54h0l.11-3.55.1-3.54-24.8-.74h0L1022.68,36l-.1,3.55h0Z"/><path class="cls-1" d="M986.55,18.34,983,18.23l.42-14.17.11-3.55,3.54.11,24.81.74,3.54.11-.1,3.54-1,31.9,3.54.1L1019,1.57l3.54.11-1.06,35.44-.1,3.54-3.55-.1-3.54-.11-3.54-.11.1-3.54.95-31.89L987,4.16l-.32,10.64,17.72.53.1-3.55-14.17-.42.1-3.55,17.72.53-.1,3.55h0l-.11,3.54-.1,3.54h0l-3.55-.1h0l-17.72-.53Zm20.63,21.9.11-3.55L986,36.06l.32-10.63,17.72.53-.1,3.54-14.18-.42-.11,3.54,14.18.42h0l3.54.11h0l.11-3.54h0l.11-3.55.1-3.54-24.81-.74h0L982.48,36l-.11,3.55h0Z"/><path class="cls-1" d="M1109.24,18.34l-3.54-.11.42-14.17.11-3.55,3.54.11,24.81.74,3.54.11L1138,5l-1,31.9,3.55.1,1.06-35.44,3.54.11-1.06,35.44-.1,3.54-3.55-.1-3.54-.11-3.55-.11.11-3.54,1-31.89-24.81-.75-.31,10.64,17.72.53.1-3.55L1113,11.36l.1-3.55,17.72.53-.1,3.55h0l-.11,3.54L1130.5,19h0l-3.54-.1h0l-17.72-.53Zm20.63,21.9.11-3.55-21.27-.63.32-10.63,17.72.53-.11,3.54-14.17-.42-.11,3.54,14.18.42h0l3.54.11h0l.11-3.54h0l.1-3.55.11-3.54-24.81-.74h0L1105.17,36l-.11,3.55h0Z"/><path class="cls-1" d="M1069,18.34l-3.55-.11.43-14.17.1-3.55,3.55.11,24.8.74,3.55.11L1097.81,5l-1,31.9,3.54.1,1.06-35.44,3.55.11L1104,37.12l-.11,3.54-3.54-.1-3.55-.11-3.54-.11.11-3.54,1-31.89-24.81-.75-.32,10.64,17.72.53.11-3.55-14.18-.42.11-3.55,17.72.53-.11,3.55h0l-.1,3.54L1090.3,19h0l-3.54-.1h0L1069,18.34Zm20.63,21.9.1-3.55-21.26-.63.32-10.63,17.72.53-.11,3.54-14.18-.42-.1,3.54,14.17.42h0l3.55.11h0l.1-3.54h0l.11-3.55.11-3.54-24.81-.74h0L1065,36l-.11,3.55h0Z"/><path class="cls-1" d="M1189.65,18.34l-3.55-.11.43-14.17.1-3.55,3.55.11,24.8.74,3.55.11L1218.42,5l-1,31.9,3.54.1,1.06-35.44,3.54.11-1,35.44-.11,3.54-3.54-.1-3.55-.11-3.54-.11.1-3.54,1-31.89-24.81-.75-.32,10.64,17.72.53.11-3.55-14.18-.42.11-3.55,17.72.53-.11,3.55h0l-.1,3.54-.11,3.54h0l-3.54-.1h0l-17.72-.53Zm20.62,21.9.11-3.55-21.26-.63.31-10.63,17.72.53-.1,3.54-14.18-.42-.1,3.54,14.17.42h0l3.55.11h0l.1-3.54h0l.11-3.55.1-3.54-24.8-.74h0L1185.57,36l-.1,3.55h0Z"/><path class="cls-1" d="M1149.44,18.34l-3.54-.11.42-14.17.11-3.55,3.54.11,24.81.74,3.54.11-.1,3.54-1,31.9,3.54.1,1.06-35.44,3.54.11-1.06,35.44-.1,3.54-3.55-.1-3.54-.11-3.54-.11.1-3.54,1-31.89-24.8-.75-.32,10.64,17.72.53.1-3.55-14.17-.42.1-3.55,17.72.53-.1,3.55h0l-.11,3.54-.1,3.54h0l-3.55-.1h0l-17.72-.53Zm20.63,21.9.11-3.55-21.27-.63.32-10.63L1167,26l-.1,3.54-14.18-.42-.11,3.54,14.18.42h0l3.54.11h0l.11-3.54h0l.11-3.55.1-3.54-24.81-.74h0L1145.37,36l-.11,3.55h0Z"/><path class="cls-1" d="M1272.13,18.34l-3.54-.11L1269,4.06l.11-3.55,3.54.11,24.81.74,3.54.11-.1,3.54-1,31.9,3.55.1,1.06-35.44,3.54.11L1307,37.12l-.1,3.54-3.55-.1-3.54-.11-3.55-.11.11-3.54.95-31.89-24.81-.75-.31,10.64,17.72.53.1-3.55-14.17-.42.1-3.55,17.72.53-.1,3.55h0l-.11,3.54-.11,3.54h0l-3.54-.1h0l-17.72-.53Zm20.63,21.9.11-3.55-21.27-.63.32-10.63,17.72.53-.11,3.54-14.17-.42-.11,3.54,14.18.42h0l3.54.11h0l.11-3.54h0l.1-3.55.11-3.54-24.81-.74h0L1268.06,36,1268,39.5h0Z"/><path class="cls-1" d="M1231.93,18.34l-3.55-.11.43-14.17.1-3.55,3.55.11,24.8.74,3.55.11L1260.7,5l-1,31.9,3.54.1,1.06-35.44,3.55.11-1.06,35.44-.11,3.54-3.54-.1-3.55-.11-3.54-.11.11-3.54,1-31.89-24.81-.75L1232,14.8l17.72.53.11-3.55-14.18-.42.11-3.55,17.72.53-.11,3.55h0l-.1,3.54-.11,3.54h0l-3.54-.1h0l-17.72-.53Zm20.63,21.9.1-3.55-21.26-.63.32-10.63,17.72.53-.11,3.54-14.18-.42-.1,3.54,14.17.42h0l3.55.11h0l.1-3.54h0l.11-3.55.11-3.54-24.81-.74h0L1227.86,36l-.11,3.55h0Z"/><path class="cls-1" d="M1351.9,18.34l-3.55-.11.43-14.17.1-3.55,3.55.11,24.8.74,3.55.11L1380.67,5l-1,31.9,3.54.1,1.06-35.44,3.54.11-1,35.44-.11,3.54-3.54-.1-3.55-.11-3.54-.11.1-3.54,1-31.89-24.81-.75L1352,14.8l17.72.53.11-3.55-14.18-.42.11-3.55,17.72.53-.11,3.55h0l-.1,3.54-.11,3.54h0l-3.54-.1h0l-17.72-.53Zm20.62,21.9.11-3.55-21.26-.63.31-10.63,17.72.53-.1,3.54-14.18-.42-.1,3.54,14.17.42h0l3.55.11h0l.1-3.54h0l.11-3.55.1-3.54-24.8-.74h0L1347.82,36l-.1,3.55h0Z"/><path class="cls-1" d="M1311.69,18.34l-3.54-.11.42-14.17.11-3.55,3.54.11,24.81.74,3.54.11-.1,3.54-1,31.9,3.54.1,1.06-35.44,3.54.11-1.06,35.44-.1,3.54-3.55-.1-3.54-.11-3.54-.11.1-3.54,1-31.89-24.8-.75-.32,10.64,17.72.53.1-3.55-14.17-.42.1-3.55,17.72.53-.1,3.55h0l-.11,3.54L1333,19h0l-3.55-.1h0l-17.72-.53Zm20.63,21.9.11-3.55-21.27-.63.32-10.63,17.72.53-.1,3.54-14.18-.42-.11,3.54L1329,33h0l3.54.11h0l.11-3.54h0l.11-3.55.1-3.54L1308,21.78h0L1307.62,36l-.11,3.55h0Z"/><path class="cls-1" d="M1434.38,18.34l-3.54-.11.42-14.17.11-3.55,3.54.11,24.81.74,3.54.11-.1,3.54-1,31.9,3.55.1,1.06-35.44,3.54.11-1.06,35.44-.1,3.54-3.55-.1-3.54-.11-3.55-.11.11-3.54.95-31.89-24.81-.75-.31,10.64,17.72.53.1-3.55-14.17-.42.1-3.55,17.72.53-.1,3.55h0l-.11,3.54-.11,3.54h0l-3.54-.1h0l-17.72-.53ZM1455,40.24l.11-3.55-21.27-.63.32-10.63,17.72.53-.11,3.54-14.17-.42-.11,3.54,14.18.42h0l3.54.11h0l.11-3.54h0l.1-3.55.11-3.54-24.81-.74h0L1430.31,36l-.11,3.55h0Z"/><path class="cls-1" d="M1394.18,18.34l-3.55-.11.43-14.17.1-3.55,3.55.11,24.8.74,3.55.11L1423,5l-1,31.9,3.54.1,1.06-35.44,3.55.11-1.06,35.44-.11,3.54-3.54-.1-3.55-.11-3.54-.11.11-3.54,1-31.89-24.81-.75-.32,10.64,17.72.53.11-3.55-14.18-.42.11-3.55,17.72.53-.11,3.55h0l-.1,3.54-.11,3.54h0l-3.54-.1h0l-17.72-.53Zm20.63,21.9.1-3.55-21.26-.63.32-10.63,17.72.53-.11,3.54-14.18-.42-.1,3.54,14.17.42h0l3.55.11h0l.1-3.54h0l.11-3.55.11-3.54-24.81-.74h0L1390.11,36,1390,39.5h0Z"/><path class="cls-1" d="M1514.79,18.34l-3.55-.11.43-14.17.1-3.55,3.55.11,24.8.74,3.55.11L1543.56,5l-1,31.9,3.54.1,1.06-35.44,3.54.11-1,35.44-.11,3.54-3.54-.1-3.55-.11-3.54-.11.1-3.54,1-31.89-24.81-.75-.32,10.64,17.72.53.11-3.55-14.18-.42.11-3.55,17.72.53-.11,3.55h0l-.1,3.54-.11,3.54h0l-3.54-.1h0l-17.72-.53Zm20.62,21.9.11-3.55-21.26-.63.31-10.63,17.72.53-.1,3.54L1518,29.08l-.1,3.54,14.17.42h0l3.55.11h0l.1-3.54h0l.11-3.55.1-3.54-24.8-.74h0L1510.71,36l-.1,3.55h0Z"/><path class="cls-1" d="M1474.58,18.34l-3.54-.11.42-14.17.11-3.55,3.54.11,24.81.74,3.54.11-.1,3.54-.95,31.9,3.54.1L1507,1.57l3.54.11-1.06,35.44-.1,3.54-3.55-.1-3.54-.11-3.54-.11.1-3.54,1-31.89L1475,4.16l-.32,10.64,17.72.53.1-3.55-14.17-.42.11-3.55,17.71.53-.1,3.55h0l-.11,3.54-.1,3.54h0l-3.55-.1h0l-17.72-.53Zm20.63,21.9.11-3.55-21.27-.63.32-10.63,17.72.53-.1,3.54-14.18-.42-.11,3.54,14.18.42h0l3.54.11h0l.11-3.54h0l.11-3.55.1-3.54-24.81-.74h0L1470.51,36l-.11,3.55h0Z"/><path class="cls-1" d="M1597.27,18.34l-3.54-.11.42-14.17.11-3.55,3.54.11,24.81.74,3.54.11-.1,3.54-1,31.9,3.55.1,1.06-35.44,3.54.11-1.06,35.44-.1,3.54-3.55-.1-3.54-.11-3.55-.11.11-3.54,1-31.89-24.81-.75-.31,10.64,17.72.53.1-3.55L1601,11.36l.1-3.55,17.72.53-.1,3.55h0l-.11,3.54-.11,3.54h0l-3.54-.1h0l-17.72-.53Zm20.63,21.9.11-3.55-21.27-.63.32-10.63,17.72.53-.11,3.54-14.17-.42-.11,3.54,14.18.42h0l3.54.11h0l.11-3.54h0l.1-3.55.11-3.54-24.81-.74h0L1593.2,36l-.11,3.55h0Z"/><path class="cls-1" d="M1557.07,18.34l-3.55-.11L1554,4.06l.1-3.55,3.55.11,24.81.74,3.54.11L1585.84,5l-.95,31.9,3.54.1,1.06-35.44,3.55.11L1592,37.12l-.11,3.54-3.54-.1-3.55-.11-3.54-.11.11-3.54,1-31.89-24.81-.75-.32,10.64,17.72.53.11-3.55-14.18-.42.11-3.55,17.72.53-.11,3.55h0l-.1,3.54-.11,3.54h0l-3.54-.1h0l-17.72-.53Zm20.63,21.9.1-3.55-21.26-.63.32-10.63,17.72.53-.11,3.54-14.18-.42-.1,3.54,14.17.42h0l3.55.11h0l.1-3.54h0l.11-3.55.11-3.54-24.81-.74h0L1553,36l-.11,3.55h0Z"/><path class="cls-1" d="M1679.76,18.34l-3.55-.11.43-14.17.1-3.55,3.55.11,24.8.74,3.55.11L1708.53,5l-1,31.9,3.54.1,1.06-35.44,3.54.11-1,35.44-.11,3.54-3.54-.1-3.55-.11-3.54-.11.1-3.54,1-31.89-24.81-.75-.32,10.64,17.72.53.11-3.55-14.18-.42.11-3.55,17.72.53-.11,3.55h0l-.1,3.54L1701,19h0l-3.54-.1h0l-17.72-.53Zm20.62,21.9.11-3.55-21.26-.63.31-10.63,17.72.53-.1,3.54L1683,29.08l-.1,3.54,14.17.42h0l3.55.11h0l.1-3.54h0l.11-3.55.1-3.54-24.8-.74h0L1675.68,36l-.1,3.55h0Z"/><path class="cls-1" d="M1639.55,18.34l-3.54-.11.42-14.17.11-3.55,3.54.11,24.81.74,3.54.11-.1,3.54-.95,31.9,3.54.1L1672,1.57l3.54.11-1.06,35.44-.1,3.54-3.55-.1-3.54-.11-3.54-.11.1-3.54,1-31.89L1640,4.16l-.32,10.64,17.72.53.1-3.55-14.17-.42.1-3.55,17.72.53-.1,3.55h0l-.11,3.54-.1,3.54h0l-3.55-.1h0l-17.72-.53Zm20.63,21.9.11-3.55L1639,36.06l.32-10.63,17.72.53-.1,3.54-14.18-.42-.11,3.54,14.18.42h0l3.54.11h0l.11-3.54h0l.11-3.55.1-3.54-24.81-.74h0L1635.48,36l-.11,3.55h0Z"/><path class="cls-1" d="M1762.24,18.34l-3.54-.11.42-14.17.11-3.55,3.54.11,24.81.74,3.54.11L1791,5l-1,31.9,3.55.1,1.06-35.44,3.54.11-1.06,35.44-.1,3.54-3.55-.1-3.54-.11-3.55-.11.11-3.54,1-31.89-24.81-.75-.31,10.64,17.72.53.1-3.55L1766,11.36l.1-3.55,17.72.53-.1,3.55h0l-.11,3.54L1783.5,19h0l-3.54-.1h0l-17.72-.53Zm20.63,21.9.11-3.55-21.27-.63.32-10.63,17.72.53-.11,3.54-14.17-.42-.11,3.54,14.18.42h0l3.54.11h0l.11-3.54h0l.1-3.55.11-3.54-24.81-.74h0L1758.17,36l-.11,3.55h0Z"/><path class="cls-1" d="M1722,18.34l-3.55-.11.43-14.17.1-3.55,3.55.11,24.8.74,3.55.11L1750.81,5l-1,31.9,3.54.1,1.06-35.44,3.55.11L1757,37.12l-.11,3.54-3.54-.1-3.55-.11-3.54-.11.11-3.54,1-31.89-24.81-.75-.32,10.64,17.72.53.11-3.55-14.18-.42.11-3.55,17.72.53-.11,3.55h0l-.1,3.54L1743.3,19h0l-3.54-.1h0L1722,18.34Zm20.63,21.9.1-3.55-21.26-.63.32-10.63,17.72.53-.11,3.54-14.18-.42-.1,3.54,14.17.42h0l3.55.11h0l.1-3.54h0l.11-3.55.11-3.54-24.81-.74h0L1718,36l-.11,3.55h0Z"/><path class="cls-1" d="M1842.65,18.34l-3.55-.11.43-14.17.1-3.55,3.55.11,24.8.74,3.55.11L1871.42,5l-1,31.9,3.54.1,1.06-35.44,3.54.11-1,35.44-.11,3.54-3.54-.1-3.55-.11-3.54-.11.1-3.54,1-31.89-24.81-.75-.32,10.64,17.72.53.11-3.55-14.18-.42.11-3.55,17.72.53-.11,3.55h0l-.1,3.54-.11,3.54h0l-3.54-.1h0l-17.72-.53Zm20.62,21.9.11-3.55-21.26-.63.31-10.63,17.72.53-.1,3.54-14.18-.42-.1,3.54,14.17.42h0l3.55.11h0l.1-3.54h0l.11-3.55.1-3.54-24.8-.74h0L1838.57,36l-.1,3.55h0Z"/><path class="cls-1" d="M1802.44,18.34l-3.54-.11.42-14.17.11-3.55,3.54.11,24.81.74,3.54.11-.1,3.54-1,31.9,3.54.1,1.06-35.44,3.54.11-1.06,35.44-.1,3.54-3.55-.1-3.54-.11-3.54-.11.1-3.54,1-31.89-24.8-.75-.32,10.64,17.72.53.1-3.55-14.17-.42.1-3.55,17.72.53-.1,3.55h0l-.11,3.54-.1,3.54h0l-3.55-.1h0l-17.72-.53Zm20.63,21.9.11-3.55-21.27-.63.32-10.63L1820,26l-.1,3.54-14.18-.42-.11,3.54,14.18.42h0l3.54.11h0l.11-3.54h0l.11-3.55.1-3.54-24.81-.74h0L1798.37,36l-.11,3.55h0Z"/><path class="cls-1" d="M1925.13,18.34l-3.54-.11L1922,4.06l.11-3.55,3.54.11,24.81.74,3.54.11-.1,3.54-1,31.9,3.55.1,1.06-35.44,3.54.11L1960,37.12l-.1,3.54-3.55-.1-3.54-.11-3.55-.11.11-3.54.95-31.89-24.81-.75-.31,10.64,17.72.53.1-3.55-14.17-.42.1-3.55,17.72.53-.1,3.55h0l-.11,3.54-.11,3.54h0l-3.54-.1h0l-17.72-.53Zm20.63,21.9.11-3.55-21.27-.63.32-10.63,17.72.53-.11,3.54-14.17-.42-.11,3.54,14.18.42h0l3.54.11h0l.11-3.54h0l.1-3.55.11-3.54-24.81-.74h0L1921.06,36,1921,39.5h0Z"/><path class="cls-1" d="M1884.93,18.34l-3.55-.11.43-14.17.1-3.55,3.55.11,24.8.74,3.55.11L1913.7,5l-1,31.9,3.54.1,1.06-35.44,3.55.11-1.06,35.44-.11,3.54-3.54-.1-3.55-.11-3.54-.11.11-3.54,1-31.89-24.81-.75L1885,14.8l17.72.53.11-3.55-14.18-.42.11-3.55,17.72.53-.11,3.55h0l-.1,3.54-.11,3.54h0l-3.54-.1h0l-17.72-.53Zm20.63,21.9.1-3.55-21.26-.63.32-10.63,17.72.53-.11,3.54-14.18-.42-.1,3.54,14.17.42h0l3.55.11h0l.1-3.54h0l.11-3.55.11-3.54-24.81-.74h0L1880.86,36l-.11,3.55h0Z"/></g></g></svg>