<svg xmlns="http://www.w3.org/2000/svg" viewBox="0 0 872.51 781.03"><defs><style>.cls-1{opacity:0.3;}.cls-2{fill:none;stroke:#00408c;stroke-miterlimit:10;}.cls-3{opacity:0.58;}.cls-4{fill:#004b89;}.cls-5{opacity:0.1;}.cls-6{fill:#00758e;}</style></defs><title>pattren</title><g id="Layer_2" data-name="Layer 2"><g id="Layer_1-2" data-name="Layer 1"><g class="cls-1"><polygon class="cls-2" points="797.69 603.79 608.17 622.47 702.93 569.98 797.69 603.79"/><polygon class="cls-2" points="648.21 497.01 608.17 622.47 702.93 569.98 648.21 497.01"/><polygon class="cls-2" points="662.34 577.96 565.45 778.47 717.06 622.47 662.34 577.96"/><polygon class="cls-2" points="608.17 622.47 648.21 497.01 568.13 603.79 608.17 622.47"/><polygon class="cls-2" points="608.17 622.47 550.42 705.7 568.13 603.79 608.17 622.47"/><polygon class="cls-2" points="608.17 622.47 550.42 705.7 655.55 757.51 608.17 622.47"/><polygon class="cls-2" points="406.35 538.49 648.21 497.01 568.13 603.79 406.35 538.49"/><polygon class="cls-2" points="568.13 603.79 406.35 538.49 551.38 622.47 568.13 603.79"/><polygon class="cls-2" points="568.13 603.79 406.35 538.49 474.69 439.55 568.13 603.79"/><polygon class="cls-2" points="351.3 378.45 406.35 538.49 474.69 439.55 351.3 378.45"/><polyline class="cls-2" points="474.69 439.55 493.08 488.19 406.35 538.49"/><polygon class="cls-2" points="351.3 378.45 474.69 439.55 464.6 328.62 351.3 378.45"/><polygon class="cls-2" points="351.3 378.45 403.5 317.94 464.6 328.62 351.3 378.45"/><polygon class="cls-2" points="579.29 358.28 474.69 439.55 464.6 328.62 579.29 358.28"/><polygon class="cls-2" points="579.29 358.28 493.67 294.22 464.6 328.62 579.29 358.28"/><polygon class="cls-2" points="507.38 497.01 474.69 439.55 464.6 328.62 507.38 497.01"/><polygon class="cls-2" points="568.13 603.79 521.95 720.33 436.92 650.73 568.13 603.79"/><polygon class="cls-2" points="568.13 603.79 554.77 760.3 508.9 622.47 568.13 603.79"/><polygon class="cls-2" points="702.93 569.98 797.69 603.79 648.21 497.01 702.93 569.98"/><polygon class="cls-2" points="434.35 393.28 669.85 538.49 662.34 577.96 434.35 393.28"/><polygon class="cls-2" points="700.62 639.38 579.29 627.59 512.65 482.85 700.62 639.38"/><polyline class="cls-2" points="655.55 757.51 847.22 639.38 596.89 693.44 655.55 755.13 717.06 760.3"/><polygon class="cls-2" points="717.06 760.3 717.06 622.47 854.93 757.51 717.06 760.3"/><polygon class="cls-2" points="772.48 524.97 568.13 557.6 655.55 755.13 772.48 524.97"/><polyline class="cls-2" points="568.13 557.6 606.64 472.77 772.48 524.97"/><polygon class="cls-2" points="367.32 439.55 403.5 317.94 265.88 409.3 367.32 439.55"/><polygon class="cls-2" points="265.88 409.3 252.24 371.93 383.34 352.35 265.88 409.3"/><polygon class="cls-2" points="329.36 328.62 512.65 482.85 323.6 361.27 329.36 328.62"/><polygon class="cls-2" points="407.95 163.12 329.36 328.62 464.6 328.62 407.95 163.12"/><polygon class="cls-2" points="288.42 150.07 284.27 294.22 407.95 163.12 288.42 150.07"/><polygon class="cls-2" points="288.42 150.07 400.79 115.66 407.95 163.12 288.42 150.07"/><polygon class="cls-2" points="477.65 208.79 284.27 294.22 184.02 211.76 477.65 208.79"/><polygon class="cls-2" points="383.34 352.35 193.51 192.78 346.11 205.83 383.34 352.35"/><polygon class="cls-2" points="184.02 211.76 252.24 371.93 383.34 352.35 184.02 211.76"/></g><g class="cls-3"><path class="cls-4" d="M433.43,650.73a3.49,3.49,0,1,1,3.49,3.49A3.49,3.49,0,0,1,433.43,650.73Z"/><path class="cls-4" d="M603.4,622.47a4.77,4.77,0,1,1,4.77,4.77A4.78,4.78,0,0,1,603.4,622.47Z"/><circle class="cls-4" cx="551.66" cy="622.03" r="3.68"/><path class="cls-4" d="M564.45,603.79a3.68,3.68,0,1,1,3.68,3.68A3.69,3.69,0,0,1,564.45,603.79Z"/><circle class="cls-4" cx="579.3" cy="627.59" r="5.83"/><path class="cls-4" d="M518.06,720.33a3.49,3.49,0,1,1,3.49,3.49A3.49,3.49,0,0,1,518.06,720.33Z"/><path class="cls-4" d="M652.5,756.47a3,3,0,1,1,3,3A3,3,0,0,1,652.5,756.47Z"/><circle class="cls-4" cx="848.09" cy="639.83" r="4.57" transform="translate(-204.03 787.09) rotate(-45)"/><path class="cls-4" d="M564.3,557.6a3.83,3.83,0,1,1,3.83,3.83A3.83,3.83,0,0,1,564.3,557.6Z"/><path class="cls-4" d="M795.64,603.79a3.83,3.83,0,1,1,3.83,3.83A3.82,3.82,0,0,1,795.64,603.79Z"/><path class="cls-4" d="M698.06,570.49a4.35,4.35,0,1,1,4.35,4.35A4.34,4.34,0,0,1,698.06,570.49Z"/><circle class="cls-4" cx="662.66" cy="577.96" r="4.35"/><circle class="cls-4" cx="606.64" cy="472.77" r="4.35"/><circle class="cls-4" cx="671.48" cy="491.45" r="4.35"/><circle class="cls-4" cx="670.67" cy="541.51" r="5.16"/><circle class="cls-4" cx="715.57" cy="622.47" r="5.31"/><path class="cls-4" d="M400.89,538.49a5.46,5.46,0,1,1,5.46,5.46A5.46,5.46,0,0,1,400.89,538.49Z"/><path class="cls-4" d="M509.5,482.85a5.46,5.46,0,1,1,5.46,5.47A5.47,5.47,0,0,1,509.5,482.85Z"/><path class="cls-4" d="M425.63,391.65a7.09,7.09,0,1,1,7.09,7.09A7.08,7.08,0,0,1,425.63,391.65Z"/><path class="cls-4" d="M460.85,328.62a3.76,3.76,0,1,1,3.75,3.76A3.75,3.75,0,0,1,460.85,328.62Z"/><path class="cls-4" d="M491,294.22a2.72,2.72,0,1,1,2.72,2.71A2.72,2.72,0,0,1,491,294.22Z"/><path class="cls-4" d="M400.79,317.5a3.16,3.16,0,1,1,3.16,3.16A3.15,3.15,0,0,1,400.79,317.5Z"/><path class="cls-4" d="M347.25,378.45a4.05,4.05,0,1,1,4.05,4.05A4.05,4.05,0,0,1,347.25,378.45Z"/><path class="cls-4" d="M325.3,328.62a4.06,4.06,0,1,1,4.05,4.05A4.05,4.05,0,0,1,325.3,328.62Z"/><path class="cls-4" d="M403.9,163.12a4.06,4.06,0,1,1,4.05,4A4.05,4.05,0,0,1,403.9,163.12Z"/><path class="cls-4" d="M281.15,148.33a5.79,5.79,0,1,1,5.79,5.79A5.79,5.79,0,0,1,281.15,148.33Z"/><path class="cls-4" d="M187.72,192.78a5.79,5.79,0,1,1,5.79,5.79A5.79,5.79,0,0,1,187.72,192.78Z"/><path class="cls-4" d="M338.54,204.94a6.68,6.68,0,1,1,6.68,6.68A6.68,6.68,0,0,1,338.54,204.94Z"/><path class="cls-4" d="M473.6,208.79a4.06,4.06,0,1,1,4,4.06A4.06,4.06,0,0,1,473.6,208.79Z"/><path class="cls-4" d="M318.33,360.66a4.67,4.67,0,1,1,4.66,4.66A4.66,4.66,0,0,1,318.33,360.66Z"/><path class="cls-4" d="M572.94,357a5.06,5.06,0,1,1,5,5.06A5.06,5.06,0,0,1,572.94,357Z"/><path class="cls-4" d="M490.19,488.19a2.89,2.89,0,1,1,2.89,2.89A2.89,2.89,0,0,1,490.19,488.19Z"/><path class="cls-4" d="M457.26,507.47a2.9,2.9,0,1,1,2.9,2.89A2.89,2.89,0,0,1,457.26,507.47Z"/><path class="cls-4" d="M279.85,294.22a4.43,4.43,0,1,1,4.42,4.21A4.32,4.32,0,0,1,279.85,294.22Z"/></g><g class="cls-5"><path class="cls-6" d="M664.58,194.71a6.28,6.28,0,1,1-6.29-6.26A6.29,6.29,0,0,1,664.58,194.71Z"/><path class="cls-6" d="M359.2,246.12a8.57,8.57,0,1,1-8.59-8.56A8.57,8.57,0,0,1,359.2,246.12Z"/><path class="cls-6" d="M458.82,246.71a6.62,6.62,0,1,1-6.63-6.6A6.63,6.63,0,0,1,458.82,246.71Z"/><path class="cls-6" d="M429.27,279.56a6.62,6.62,0,1,1-6.63-6.61A6.61,6.61,0,0,1,429.27,279.56Z"/><path class="cls-6" d="M413,236.8a10.49,10.49,0,1,1-10.51-10.46A10.48,10.48,0,0,1,413,236.8Z"/><path class="cls-6" d="M270.47,5.47A5.48,5.48,0,1,1,265,0,5.49,5.49,0,0,1,270.47,5.47Z"/><path class="cls-6" d="M429.71,362.57a6.89,6.89,0,1,1-6.9-6.87A6.89,6.89,0,0,1,429.71,362.57Z"/><path class="cls-6" d="M13.77,280.4a6.89,6.89,0,1,1-6.9-6.87A6.89,6.89,0,0,1,13.77,280.4Z"/><path class="cls-6" d="M189.26,339.88a7.82,7.82,0,1,1-7.83-7.8A7.82,7.82,0,0,1,189.26,339.88Z"/><path class="cls-6" d="M260.66,326.31a7.82,7.82,0,1,1-7.83-7.8A7.81,7.81,0,0,1,260.66,326.31Z"/><path class="cls-6" d="M361.74,515.17a7.82,7.82,0,1,1-7.83-7.8A7.81,7.81,0,0,1,361.74,515.17Z"/><path class="cls-6" d="M245.13,481.82a7.82,7.82,0,1,1-7.83-7.8A7.8,7.8,0,0,1,245.13,481.82Z"/><path class="cls-6" d="M176.42,405.72a9.28,9.28,0,1,1-9.3-9.26A9.27,9.27,0,0,1,176.42,405.72Z"/><path class="cls-6" d="M167.14,246.51a9.55,9.55,0,1,1-9.57-9.53A9.55,9.55,0,0,1,167.14,246.51Z"/><path class="cls-6" d="M723.47,396.32a9.82,9.82,0,1,1-9.83-9.79A9.82,9.82,0,0,1,723.47,396.32Z"/><path class="cls-6" d="M393.15,595a9.82,9.82,0,1,1-9.83-9.79A9.82,9.82,0,0,1,393.15,595Z"/><path class="cls-6" d="M679.55,660.32a12.75,12.75,0,1,1-12.78-12.72A12.74,12.74,0,0,1,679.55,660.32Z"/><path class="cls-6" d="M820.46,683.76a7.29,7.29,0,1,1-7.3-7.27A7.27,7.27,0,0,1,820.46,683.76Z"/><path class="cls-6" d="M872.51,715.63a8.39,8.39,0,1,1-8.4-8.37A8.39,8.39,0,0,1,872.51,715.63Z"/><path class="cls-6" d="M414.92,723.17a9.09,9.09,0,1,1-9.11-9.07A9.09,9.09,0,0,1,414.92,723.17Z"/><path class="cls-6" d="M563.16,487a5.2,5.2,0,1,1-5.2-5.19A5.19,5.19,0,0,1,563.16,487Z"/><path class="cls-6" d="M622.26,452.27a5.2,5.2,0,1,1-5.2-5.18A5.19,5.19,0,0,1,622.26,452.27Z"/></g></g></g></svg>